<?xml version="1.0" encoding="utf-8" standalone="no"?>
<!DOCTYPE svg PUBLIC "-//W3C//DTD SVG 1.1//EN"
  "http://www.w3.org/Graphics/SVG/1.1/DTD/svg11.dtd">
<!-- Created with matplotlib (http://matplotlib.org/) -->
<svg height="345.6pt" version="1.1" viewBox="0 0 460.8 345.6" width="460.8pt" xmlns="http://www.w3.org/2000/svg" xmlns:xlink="http://www.w3.org/1999/xlink">
 <defs>
  <style type="text/css">
*{stroke-linecap:butt;stroke-linejoin:round;}
  </style>
 </defs>
 <g id="figure_1">
  <g id="patch_1">
   <path d="M 0 345.6 
L 460.8 345.6 
L 460.8 0 
L 0 0 
z
" style="fill:#ffffff;"/>
  </g>
  <g id="axes_1">
   <g id="patch_2">
    <path d="M 57.6 307.584 
L 414.72 307.584 
L 414.72 41.472 
L 57.6 41.472 
z
" style="fill:#ffffff;"/>
   </g>
   <g id="matplotlib.axis_1">
    <g id="xtick_1">
     <g id="line2d_1">
      <defs>
       <path d="M 0 0 
L 0 3.5 
" id="mbcc4cd02a3" style="stroke:#000000;stroke-width:0.8;"/>
      </defs>
      <g>
       <use style="stroke:#000000;stroke-width:0.8;" x="73.832727" xlink:href="#mbcc4cd02a3" y="307.584"/>
      </g>
     </g>
     <g id="text_1">
      <!-- 0 -->
      <defs>
       <path d="M 31.78125 66.40625 
Q 24.171875 66.40625 20.328125 58.90625 
Q 16.5 51.421875 16.5 36.375 
Q 16.5 21.390625 20.328125 13.890625 
Q 24.171875 6.390625 31.78125 6.390625 
Q 39.453125 6.390625 43.28125 13.890625 
Q 47.125 21.390625 47.125 36.375 
Q 47.125 51.421875 43.28125 58.90625 
Q 39.453125 66.40625 31.78125 66.40625 
z
M 31.78125 74.21875 
Q 44.046875 74.21875 50.515625 64.515625 
Q 56.984375 54.828125 56.984375 36.375 
Q 56.984375 17.96875 50.515625 8.265625 
Q 44.046875 -1.421875 31.78125 -1.421875 
Q 19.53125 -1.421875 13.0625 8.265625 
Q 6.59375 17.96875 6.59375 36.375 
Q 6.59375 54.828125 13.0625 64.515625 
Q 19.53125 74.21875 31.78125 74.21875 
z
" id="DejaVuSans-30"/>
      </defs>
      <g transform="translate(70.651477 322.182437)scale(0.1 -0.1)">
       <use xlink:href="#DejaVuSans-30"/>
      </g>
     </g>
    </g>
    <g id="xtick_2">
     <g id="line2d_2">
      <g>
       <use style="stroke:#000000;stroke-width:0.8;" x="128.122785" xlink:href="#mbcc4cd02a3" y="307.584"/>
      </g>
     </g>
     <g id="text_2">
      <!-- 50 -->
      <defs>
       <path d="M 10.796875 72.90625 
L 49.515625 72.90625 
L 49.515625 64.59375 
L 19.828125 64.59375 
L 19.828125 46.734375 
Q 21.96875 47.46875 24.109375 47.828125 
Q 26.265625 48.1875 28.421875 48.1875 
Q 40.625 48.1875 47.75 41.5 
Q 54.890625 34.8125 54.890625 23.390625 
Q 54.890625 11.625 47.5625 5.09375 
Q 40.234375 -1.421875 26.90625 -1.421875 
Q 22.3125 -1.421875 17.546875 -0.640625 
Q 12.796875 0.140625 7.71875 1.703125 
L 7.71875 11.625 
Q 12.109375 9.234375 16.796875 8.0625 
Q 21.484375 6.890625 26.703125 6.890625 
Q 35.15625 6.890625 40.078125 11.328125 
Q 45.015625 15.765625 45.015625 23.390625 
Q 45.015625 31 40.078125 35.4375 
Q 35.15625 39.890625 26.703125 39.890625 
Q 22.75 39.890625 18.8125 39.015625 
Q 14.890625 38.140625 10.796875 36.28125 
z
" id="DejaVuSans-35"/>
      </defs>
      <g transform="translate(121.760285 322.182437)scale(0.1 -0.1)">
       <use xlink:href="#DejaVuSans-35"/>
       <use x="63.623047" xlink:href="#DejaVuSans-30"/>
      </g>
     </g>
    </g>
    <g id="xtick_3">
     <g id="line2d_3">
      <g>
       <use style="stroke:#000000;stroke-width:0.8;" x="182.412843" xlink:href="#mbcc4cd02a3" y="307.584"/>
      </g>
     </g>
     <g id="text_3">
      <!-- 100 -->
      <defs>
       <path d="M 12.40625 8.296875 
L 28.515625 8.296875 
L 28.515625 63.921875 
L 10.984375 60.40625 
L 10.984375 69.390625 
L 28.421875 72.90625 
L 38.28125 72.90625 
L 38.28125 8.296875 
L 54.390625 8.296875 
L 54.390625 0 
L 12.40625 0 
z
" id="DejaVuSans-31"/>
      </defs>
      <g transform="translate(172.869093 322.182437)scale(0.1 -0.1)">
       <use xlink:href="#DejaVuSans-31"/>
       <use x="63.623047" xlink:href="#DejaVuSans-30"/>
       <use x="127.246094" xlink:href="#DejaVuSans-30"/>
      </g>
     </g>
    </g>
    <g id="xtick_4">
     <g id="line2d_4">
      <g>
       <use style="stroke:#000000;stroke-width:0.8;" x="236.702901" xlink:href="#mbcc4cd02a3" y="307.584"/>
      </g>
     </g>
     <g id="text_4">
      <!-- 150 -->
      <g transform="translate(227.159151 322.182437)scale(0.1 -0.1)">
       <use xlink:href="#DejaVuSans-31"/>
       <use x="63.623047" xlink:href="#DejaVuSans-35"/>
       <use x="127.246094" xlink:href="#DejaVuSans-30"/>
      </g>
     </g>
    </g>
    <g id="xtick_5">
     <g id="line2d_5">
      <g>
       <use style="stroke:#000000;stroke-width:0.8;" x="290.992958" xlink:href="#mbcc4cd02a3" y="307.584"/>
      </g>
     </g>
     <g id="text_5">
      <!-- 200 -->
      <defs>
       <path d="M 19.1875 8.296875 
L 53.609375 8.296875 
L 53.609375 0 
L 7.328125 0 
L 7.328125 8.296875 
Q 12.9375 14.109375 22.625 23.890625 
Q 32.328125 33.6875 34.8125 36.53125 
Q 39.546875 41.84375 41.421875 45.53125 
Q 43.3125 49.21875 43.3125 52.78125 
Q 43.3125 58.59375 39.234375 62.25 
Q 35.15625 65.921875 28.609375 65.921875 
Q 23.96875 65.921875 18.8125 64.3125 
Q 13.671875 62.703125 7.8125 59.421875 
L 7.8125 69.390625 
Q 13.765625 71.78125 18.9375 73 
Q 24.125 74.21875 28.421875 74.21875 
Q 39.75 74.21875 46.484375 68.546875 
Q 53.21875 62.890625 53.21875 53.421875 
Q 53.21875 48.921875 51.53125 44.890625 
Q 49.859375 40.875 45.40625 35.40625 
Q 44.1875 33.984375 37.640625 27.21875 
Q 31.109375 20.453125 19.1875 8.296875 
z
" id="DejaVuSans-32"/>
      </defs>
      <g transform="translate(281.449208 322.182437)scale(0.1 -0.1)">
       <use xlink:href="#DejaVuSans-32"/>
       <use x="63.623047" xlink:href="#DejaVuSans-30"/>
       <use x="127.246094" xlink:href="#DejaVuSans-30"/>
      </g>
     </g>
    </g>
    <g id="xtick_6">
     <g id="line2d_6">
      <g>
       <use style="stroke:#000000;stroke-width:0.8;" x="345.283016" xlink:href="#mbcc4cd02a3" y="307.584"/>
      </g>
     </g>
     <g id="text_6">
      <!-- 250 -->
      <g transform="translate(335.739266 322.182437)scale(0.1 -0.1)">
       <use xlink:href="#DejaVuSans-32"/>
       <use x="63.623047" xlink:href="#DejaVuSans-35"/>
       <use x="127.246094" xlink:href="#DejaVuSans-30"/>
      </g>
     </g>
    </g>
    <g id="xtick_7">
     <g id="line2d_7">
      <g>
       <use style="stroke:#000000;stroke-width:0.8;" x="399.573074" xlink:href="#mbcc4cd02a3" y="307.584"/>
      </g>
     </g>
    </g>
    <g id="text_7">
     <!-- Frame index -->
     <defs>
      <path d="M 9.8125 72.90625 
L 51.703125 72.90625 
L 51.703125 64.59375 
L 19.671875 64.59375 
L 19.671875 43.109375 
L 48.578125 43.109375 
L 48.578125 34.8125 
L 19.671875 34.8125 
L 19.671875 0 
L 9.8125 0 
z
" id="DejaVuSans-46"/>
      <path d="M 41.109375 46.296875 
Q 39.59375 47.171875 37.8125 47.578125 
Q 36.03125 48 33.890625 48 
Q 26.265625 48 22.1875 43.046875 
Q 18.109375 38.09375 18.109375 28.8125 
L 18.109375 0 
L 9.078125 0 
L 9.078125 54.6875 
L 18.109375 54.6875 
L 18.109375 46.1875 
Q 20.953125 51.171875 25.484375 53.578125 
Q 30.03125 56 36.53125 56 
Q 37.453125 56 38.578125 55.875 
Q 39.703125 55.765625 41.0625 55.515625 
z
" id="DejaVuSans-72"/>
      <path d="M 34.28125 27.484375 
Q 23.390625 27.484375 19.1875 25 
Q 14.984375 22.515625 14.984375 16.5 
Q 14.984375 11.71875 18.140625 8.90625 
Q 21.296875 6.109375 26.703125 6.109375 
Q 34.1875 6.109375 38.703125 11.40625 
Q 43.21875 16.703125 43.21875 25.484375 
L 43.21875 27.484375 
z
M 52.203125 31.203125 
L 52.203125 0 
L 43.21875 0 
L 43.21875 8.296875 
Q 40.140625 3.328125 35.546875 0.953125 
Q 30.953125 -1.421875 24.3125 -1.421875 
Q 15.921875 -1.421875 10.953125 3.296875 
Q 6 8.015625 6 15.921875 
Q 6 25.140625 12.171875 29.828125 
Q 18.359375 34.515625 30.609375 34.515625 
L 43.21875 34.515625 
L 43.21875 35.40625 
Q 43.21875 41.609375 39.140625 45 
Q 35.0625 48.390625 27.6875 48.390625 
Q 23 48.390625 18.546875 47.265625 
Q 14.109375 46.140625 10.015625 43.890625 
L 10.015625 52.203125 
Q 14.9375 54.109375 19.578125 55.046875 
Q 24.21875 56 28.609375 56 
Q 40.484375 56 46.34375 49.84375 
Q 52.203125 43.703125 52.203125 31.203125 
z
" id="DejaVuSans-61"/>
      <path d="M 52 44.1875 
Q 55.375 50.25 60.0625 53.125 
Q 64.75 56 71.09375 56 
Q 79.640625 56 84.28125 50.015625 
Q 88.921875 44.046875 88.921875 33.015625 
L 88.921875 0 
L 79.890625 0 
L 79.890625 32.71875 
Q 79.890625 40.578125 77.09375 44.375 
Q 74.3125 48.1875 68.609375 48.1875 
Q 61.625 48.1875 57.5625 43.546875 
Q 53.515625 38.921875 53.515625 30.90625 
L 53.515625 0 
L 44.484375 0 
L 44.484375 32.71875 
Q 44.484375 40.625 41.703125 44.40625 
Q 38.921875 48.1875 33.109375 48.1875 
Q 26.21875 48.1875 22.15625 43.53125 
Q 18.109375 38.875 18.109375 30.90625 
L 18.109375 0 
L 9.078125 0 
L 9.078125 54.6875 
L 18.109375 54.6875 
L 18.109375 46.1875 
Q 21.1875 51.21875 25.484375 53.609375 
Q 29.78125 56 35.6875 56 
Q 41.65625 56 45.828125 52.96875 
Q 50 49.953125 52 44.1875 
z
" id="DejaVuSans-6d"/>
      <path d="M 56.203125 29.59375 
L 56.203125 25.203125 
L 14.890625 25.203125 
Q 15.484375 15.921875 20.484375 11.0625 
Q 25.484375 6.203125 34.421875 6.203125 
Q 39.59375 6.203125 44.453125 7.46875 
Q 49.3125 8.734375 54.109375 11.28125 
L 54.109375 2.78125 
Q 49.265625 0.734375 44.1875 -0.34375 
Q 39.109375 -1.421875 33.890625 -1.421875 
Q 20.796875 -1.421875 13.15625 6.1875 
Q 5.515625 13.8125 5.515625 26.8125 
Q 5.515625 40.234375 12.765625 48.109375 
Q 20.015625 56 32.328125 56 
Q 43.359375 56 49.78125 48.890625 
Q 56.203125 41.796875 56.203125 29.59375 
z
M 47.21875 32.234375 
Q 47.125 39.59375 43.09375 43.984375 
Q 39.0625 48.390625 32.421875 48.390625 
Q 24.90625 48.390625 20.390625 44.140625 
Q 15.875 39.890625 15.1875 32.171875 
z
" id="DejaVuSans-65"/>
      <path id="DejaVuSans-20"/>
      <path d="M 9.421875 54.6875 
L 18.40625 54.6875 
L 18.40625 0 
L 9.421875 0 
z
M 9.421875 75.984375 
L 18.40625 75.984375 
L 18.40625 64.59375 
L 9.421875 64.59375 
z
" id="DejaVuSans-69"/>
      <path d="M 54.890625 33.015625 
L 54.890625 0 
L 45.90625 0 
L 45.90625 32.71875 
Q 45.90625 40.484375 42.875 44.328125 
Q 39.84375 48.1875 33.796875 48.1875 
Q 26.515625 48.1875 22.3125 43.546875 
Q 18.109375 38.921875 18.109375 30.90625 
L 18.109375 0 
L 9.078125 0 
L 9.078125 54.6875 
L 18.109375 54.6875 
L 18.109375 46.1875 
Q 21.34375 51.125 25.703125 53.5625 
Q 30.078125 56 35.796875 56 
Q 45.21875 56 50.046875 50.171875 
Q 54.890625 44.34375 54.890625 33.015625 
z
" id="DejaVuSans-6e"/>
      <path d="M 45.40625 46.390625 
L 45.40625 75.984375 
L 54.390625 75.984375 
L 54.390625 0 
L 45.40625 0 
L 45.40625 8.203125 
Q 42.578125 3.328125 38.25 0.953125 
Q 33.9375 -1.421875 27.875 -1.421875 
Q 17.96875 -1.421875 11.734375 6.484375 
Q 5.515625 14.40625 5.515625 27.296875 
Q 5.515625 40.1875 11.734375 48.09375 
Q 17.96875 56 27.875 56 
Q 33.9375 56 38.25 53.625 
Q 42.578125 51.265625 45.40625 46.390625 
z
M 14.796875 27.296875 
Q 14.796875 17.390625 18.875 11.75 
Q 22.953125 6.109375 30.078125 6.109375 
Q 37.203125 6.109375 41.296875 11.75 
Q 45.40625 17.390625 45.40625 27.296875 
Q 45.40625 37.203125 41.296875 42.84375 
Q 37.203125 48.484375 30.078125 48.484375 
Q 22.953125 48.484375 18.875 42.84375 
Q 14.796875 37.203125 14.796875 27.296875 
z
" id="DejaVuSans-64"/>
      <path d="M 54.890625 54.6875 
L 35.109375 28.078125 
L 55.90625 0 
L 45.3125 0 
L 29.390625 21.484375 
L 13.484375 0 
L 2.875 0 
L 24.125 28.609375 
L 4.6875 54.6875 
L 15.28125 54.6875 
L 29.78125 35.203125 
L 44.28125 54.6875 
z
" id="DejaVuSans-78"/>
     </defs>
     <g transform="translate(204.867031 335.860562)scale(0.1 -0.1)">
      <use xlink:href="#DejaVuSans-46"/>
      <use x="57.410156" xlink:href="#DejaVuSans-72"/>
      <use x="98.523438" xlink:href="#DejaVuSans-61"/>
      <use x="159.802734" xlink:href="#DejaVuSans-6d"/>
      <use x="257.214844" xlink:href="#DejaVuSans-65"/>
      <use x="318.738281" xlink:href="#DejaVuSans-20"/>
      <use x="350.525391" xlink:href="#DejaVuSans-69"/>
      <use x="378.308594" xlink:href="#DejaVuSans-6e"/>
      <use x="441.6875" xlink:href="#DejaVuSans-64"/>
      <use x="505.164062" xlink:href="#DejaVuSans-65"/>
      <use x="566.671875" xlink:href="#DejaVuSans-78"/>
     </g>
    </g>
   </g>
   <g id="matplotlib.axis_2">
    <g id="ytick_1">
     <g id="line2d_8">
      <defs>
       <path d="M 0 0 
L -3.5 0 
" id="mcaf854675b" style="stroke:#000000;stroke-width:0.8;"/>
      </defs>
      <g>
       <use style="stroke:#000000;stroke-width:0.8;" x="57.6" xlink:href="#mcaf854675b" y="295.488"/>
      </g>
     </g>
     <g id="text_8">
      <!-- 0.0 -->
      <defs>
       <path d="M 10.6875 12.40625 
L 21 12.40625 
L 21 0 
L 10.6875 0 
z
" id="DejaVuSans-2e"/>
      </defs>
      <g transform="translate(34.696875 299.287219)scale(0.1 -0.1)">
       <use xlink:href="#DejaVuSans-30"/>
       <use x="63.623047" xlink:href="#DejaVuSans-2e"/>
       <use x="95.410156" xlink:href="#DejaVuSans-30"/>
      </g>
     </g>
    </g>
    <g id="ytick_2">
     <g id="line2d_9">
      <g>
       <use style="stroke:#000000;stroke-width:0.8;" x="57.6" xlink:href="#mcaf854675b" y="253.292334"/>
      </g>
     </g>
     <g id="text_9">
      <!-- 0.5 -->
      <g transform="translate(34.696875 257.091553)scale(0.1 -0.1)">
       <use xlink:href="#DejaVuSans-30"/>
       <use x="63.623047" xlink:href="#DejaVuSans-2e"/>
       <use x="95.410156" xlink:href="#DejaVuSans-35"/>
      </g>
     </g>
    </g>
    <g id="ytick_3">
     <g id="line2d_10">
      <g>
       <use style="stroke:#000000;stroke-width:0.8;" x="57.6" xlink:href="#mcaf854675b" y="211.096668"/>
      </g>
     </g>
     <g id="text_10">
      <!-- 1.0 -->
      <g transform="translate(34.696875 214.895887)scale(0.1 -0.1)">
       <use xlink:href="#DejaVuSans-31"/>
       <use x="63.623047" xlink:href="#DejaVuSans-2e"/>
       <use x="95.410156" xlink:href="#DejaVuSans-30"/>
      </g>
     </g>
    </g>
    <g id="ytick_4">
     <g id="line2d_11">
      <g>
       <use style="stroke:#000000;stroke-width:0.8;" x="57.6" xlink:href="#mcaf854675b" y="168.901002"/>
      </g>
     </g>
     <g id="text_11">
      <!-- 1.5 -->
      <g transform="translate(34.696875 172.70022)scale(0.1 -0.1)">
       <use xlink:href="#DejaVuSans-31"/>
       <use x="63.623047" xlink:href="#DejaVuSans-2e"/>
       <use x="95.410156" xlink:href="#DejaVuSans-35"/>
      </g>
     </g>
    </g>
    <g id="ytick_5">
     <g id="line2d_12">
      <g>
       <use style="stroke:#000000;stroke-width:0.8;" x="57.6" xlink:href="#mcaf854675b" y="126.705336"/>
      </g>
     </g>
     <g id="text_12">
      <!-- 2.0 -->
      <g transform="translate(34.696875 130.504554)scale(0.1 -0.1)">
       <use xlink:href="#DejaVuSans-32"/>
       <use x="63.623047" xlink:href="#DejaVuSans-2e"/>
       <use x="95.410156" xlink:href="#DejaVuSans-30"/>
      </g>
     </g>
    </g>
    <g id="ytick_6">
     <g id="line2d_13">
      <g>
       <use style="stroke:#000000;stroke-width:0.8;" x="57.6" xlink:href="#mcaf854675b" y="84.50967"/>
      </g>
     </g>
     <g id="text_13">
      <!-- 2.5 -->
      <g transform="translate(34.696875 88.308888)scale(0.1 -0.1)">
       <use xlink:href="#DejaVuSans-32"/>
       <use x="63.623047" xlink:href="#DejaVuSans-2e"/>
       <use x="95.410156" xlink:href="#DejaVuSans-35"/>
      </g>
     </g>
    </g>
    <g id="ytick_7">
     <g id="line2d_14">
      <g>
       <use style="stroke:#000000;stroke-width:0.8;" x="57.6" xlink:href="#mcaf854675b" y="42.314003"/>
      </g>
     </g>
     <g id="text_14">
      <!-- 3.0 -->
      <defs>
       <path d="M 40.578125 39.3125 
Q 47.65625 37.796875 51.625 33 
Q 55.609375 28.21875 55.609375 21.1875 
Q 55.609375 10.40625 48.1875 4.484375 
Q 40.765625 -1.421875 27.09375 -1.421875 
Q 22.515625 -1.421875 17.65625 -0.515625 
Q 12.796875 0.390625 7.625 2.203125 
L 7.625 11.71875 
Q 11.71875 9.328125 16.59375 8.109375 
Q 21.484375 6.890625 26.8125 6.890625 
Q 36.078125 6.890625 40.9375 10.546875 
Q 45.796875 14.203125 45.796875 21.1875 
Q 45.796875 27.640625 41.28125 31.265625 
Q 36.765625 34.90625 28.71875 34.90625 
L 20.21875 34.90625 
L 20.21875 43.015625 
L 29.109375 43.015625 
Q 36.375 43.015625 40.234375 45.921875 
Q 44.09375 48.828125 44.09375 54.296875 
Q 44.09375 59.90625 40.109375 62.90625 
Q 36.140625 65.921875 28.71875 65.921875 
Q 24.65625 65.921875 20.015625 65.03125 
Q 15.375 64.15625 9.8125 62.3125 
L 9.8125 71.09375 
Q 15.4375 72.65625 20.34375 73.4375 
Q 25.25 74.21875 29.59375 74.21875 
Q 40.828125 74.21875 47.359375 69.109375 
Q 53.90625 64.015625 53.90625 55.328125 
Q 53.90625 49.265625 50.4375 45.09375 
Q 46.96875 40.921875 40.578125 39.3125 
z
" id="DejaVuSans-33"/>
      </defs>
      <g transform="translate(34.696875 46.113222)scale(0.1 -0.1)">
       <use xlink:href="#DejaVuSans-33"/>
       <use x="63.623047" xlink:href="#DejaVuSans-2e"/>
       <use x="95.410156" xlink:href="#DejaVuSans-30"/>
      </g>
     </g>
    </g>
    <g id="text_15">
     <!-- RMSD -->
     <defs>
      <path d="M 44.390625 34.1875 
Q 47.5625 33.109375 50.5625 29.59375 
Q 53.5625 26.078125 56.59375 19.921875 
L 66.609375 0 
L 56 0 
L 46.6875 18.703125 
Q 43.0625 26.03125 39.671875 28.421875 
Q 36.28125 30.8125 30.421875 30.8125 
L 19.671875 30.8125 
L 19.671875 0 
L 9.8125 0 
L 9.8125 72.90625 
L 32.078125 72.90625 
Q 44.578125 72.90625 50.734375 67.671875 
Q 56.890625 62.453125 56.890625 51.90625 
Q 56.890625 45.015625 53.6875 40.46875 
Q 50.484375 35.9375 44.390625 34.1875 
z
M 19.671875 64.796875 
L 19.671875 38.921875 
L 32.078125 38.921875 
Q 39.203125 38.921875 42.84375 42.21875 
Q 46.484375 45.515625 46.484375 51.90625 
Q 46.484375 58.296875 42.84375 61.546875 
Q 39.203125 64.796875 32.078125 64.796875 
z
" id="DejaVuSans-52"/>
      <path d="M 9.8125 72.90625 
L 24.515625 72.90625 
L 43.109375 23.296875 
L 61.8125 72.90625 
L 76.515625 72.90625 
L 76.515625 0 
L 66.890625 0 
L 66.890625 64.015625 
L 48.09375 14.015625 
L 38.1875 14.015625 
L 19.390625 64.015625 
L 19.390625 0 
L 9.8125 0 
z
" id="DejaVuSans-4d"/>
      <path d="M 53.515625 70.515625 
L 53.515625 60.890625 
Q 47.90625 63.578125 42.921875 64.890625 
Q 37.9375 66.21875 33.296875 66.21875 
Q 25.25 66.21875 20.875 63.09375 
Q 16.5 59.96875 16.5 54.203125 
Q 16.5 49.359375 19.40625 46.890625 
Q 22.3125 44.4375 30.421875 42.921875 
L 36.375 41.703125 
Q 47.40625 39.59375 52.65625 34.296875 
Q 57.90625 29 57.90625 20.125 
Q 57.90625 9.515625 50.796875 4.046875 
Q 43.703125 -1.421875 29.984375 -1.421875 
Q 24.8125 -1.421875 18.96875 -0.25 
Q 13.140625 0.921875 6.890625 3.21875 
L 6.890625 13.375 
Q 12.890625 10.015625 18.65625 8.296875 
Q 24.421875 6.59375 29.984375 6.59375 
Q 38.421875 6.59375 43.015625 9.90625 
Q 47.609375 13.234375 47.609375 19.390625 
Q 47.609375 24.75 44.3125 27.78125 
Q 41.015625 30.8125 33.5 32.328125 
L 27.484375 33.5 
Q 16.453125 35.6875 11.515625 40.375 
Q 6.59375 45.0625 6.59375 53.421875 
Q 6.59375 63.09375 13.40625 68.65625 
Q 20.21875 74.21875 32.171875 74.21875 
Q 37.3125 74.21875 42.625 73.28125 
Q 47.953125 72.359375 53.515625 70.515625 
z
" id="DejaVuSans-53"/>
      <path d="M 19.671875 64.796875 
L 19.671875 8.109375 
L 31.59375 8.109375 
Q 46.6875 8.109375 53.6875 14.9375 
Q 60.6875 21.78125 60.6875 36.53125 
Q 60.6875 51.171875 53.6875 57.984375 
Q 46.6875 64.796875 31.59375 64.796875 
z
M 9.8125 72.90625 
L 30.078125 72.90625 
Q 51.265625 72.90625 61.171875 64.09375 
Q 71.09375 55.28125 71.09375 36.53125 
Q 71.09375 17.671875 61.125 8.828125 
Q 51.171875 0 30.078125 0 
L 9.8125 0 
z
" id="DejaVuSans-44"/>
     </defs>
     <g transform="translate(28.617187 189.3405)rotate(-90)scale(0.1 -0.1)">
      <use xlink:href="#DejaVuSans-52"/>
      <use x="69.482422" xlink:href="#DejaVuSans-4d"/>
      <use x="155.761719" xlink:href="#DejaVuSans-53"/>
      <use x="219.238281" xlink:href="#DejaVuSans-44"/>
     </g>
    </g>
   </g>
   <g id="line2d_15">
    <path clip-path="url(#p23d1700bde)" d="M 73.832727 295.488 
L 74.918528 197.414214 
L 76.00433 181.652803 
L 78.175932 157.096526 
L 79.261733 158.773231 
L 80.347534 155.493409 
L 81.433335 148.784432 
L 82.519137 147.094499 
L 83.604938 145.769702 
L 84.690739 149.301464 
L 85.77654 152.312544 
L 86.862341 153.87923 
L 87.948142 152.264605 
L 89.033943 149.645259 
L 90.119745 137.015359 
L 91.205546 137.224767 
L 93.377148 133.726793 
L 94.462949 134.423906 
L 95.54875 127.486324 
L 96.634552 126.573707 
L 97.720353 127.915391 
L 98.806154 129.600451 
L 99.891955 123.792078 
L 100.977756 125.406375 
L 102.063557 125.996091 
L 104.23516 131.003416 
L 105.320961 129.408232 
L 106.406762 127.325721 
L 107.492563 127.532007 
L 108.578364 129.147526 
L 109.664165 128.766699 
L 110.749967 128.59745 
L 111.835768 127.507618 
L 112.921569 127.141244 
L 114.00737 126.211936 
L 115.093171 123.445007 
L 116.178972 123.237687 
L 117.264773 124.0602 
L 118.350575 122.944467 
L 119.436376 126.162834 
L 120.522177 126.940061 
L 121.607978 125.064599 
L 122.693779 128.100489 
L 123.77958 127.873817 
L 125.951183 127.110213 
L 127.036984 117.30196 
L 128.122785 118.346409 
L 129.208586 118.347911 
L 130.294387 118.502183 
L 131.380189 118.101775 
L 132.46599 116.178294 
L 133.551791 115.249621 
L 134.637592 114.12543 
L 135.723393 116.377315 
L 136.809194 116.464617 
L 137.894995 116.7189 
L 138.980797 114.685835 
L 140.066598 117.835115 
L 141.152399 115.807295 
L 142.2382 112.284998 
L 143.324001 112.173476 
L 144.409802 110.754207 
L 145.495604 105.765978 
L 146.581405 105.511566 
L 147.667206 107.296478 
L 148.753007 102.753401 
L 149.838808 104.796104 
L 150.924609 107.64579 
L 152.01041 106.706909 
L 153.096212 101.46371 
L 154.182013 99.001491 
L 155.267814 98.696038 
L 156.353615 97.345117 
L 157.439416 99.281458 
L 158.525217 98.694496 
L 159.611019 100.510158 
L 160.69682 101.085408 
L 161.782621 97.448473 
L 162.868422 91.553104 
L 163.954223 89.909145 
L 165.040024 87.952163 
L 166.125825 87.112953 
L 167.211627 88.932974 
L 168.297428 91.030326 
L 169.383229 94.559085 
L 170.46903 100.817519 
L 171.554831 100.541432 
L 172.640632 96.219021 
L 173.726434 95.828594 
L 174.812235 95.063926 
L 175.898036 94.842724 
L 176.983837 93.420724 
L 178.069638 95.753875 
L 179.155439 90.717829 
L 180.24124 93.886634 
L 181.327042 88.87124 
L 183.498644 82.857634 
L 184.584445 83.351076 
L 185.670246 81.997105 
L 186.756047 87.322623 
L 187.841849 81.870155 
L 188.92765 86.633308 
L 191.099252 81.870078 
L 192.185053 85.266348 
L 193.270854 84.244009 
L 194.356656 82.484511 
L 195.442457 83.246133 
L 196.528258 86.626051 
L 197.614059 83.266647 
L 198.69986 78.499397 
L 199.785661 76.724355 
L 200.871462 76.239534 
L 201.957264 77.585031 
L 203.043065 81.293378 
L 204.128866 78.587365 
L 205.214667 77.205254 
L 206.300468 76.873438 
L 207.386269 73.697947 
L 208.472071 78.447379 
L 209.557872 77.338338 
L 210.643673 77.391446 
L 211.729474 83.010833 
L 212.815275 82.4729 
L 213.901076 80.402512 
L 214.986877 88.125513 
L 216.072679 83.311587 
L 217.15848 89.753639 
L 218.244281 83.448871 
L 219.330082 83.848908 
L 220.415883 83.493938 
L 221.501684 78.951592 
L 222.587486 75.932805 
L 223.673287 74.384297 
L 224.759088 80.012035 
L 225.844889 78.272935 
L 226.93069 76.961349 
L 228.016491 81.130082 
L 229.102292 77.983711 
L 230.188094 77.405286 
L 231.273895 68.244997 
L 232.359696 80.71304 
L 233.445497 63.431786 
L 234.531298 58.143581 
L 235.617099 54.513132 
L 236.702901 63.554472 
L 237.788702 60.38759 
L 238.874503 63.33137 
L 239.960304 70.808584 
L 241.046105 62.896043 
L 242.131906 56.428259 
L 243.217708 57.026578 
L 244.303509 73.588706 
L 245.38931 73.504553 
L 246.475111 82.831106 
L 247.560912 62.045977 
L 248.646713 61.722473 
L 249.732514 68.529872 
L 250.818316 73.781752 
L 251.904117 58.84563 
L 252.989918 60.113089 
L 254.075719 61.034126 
L 255.16152 58.323507 
L 256.247321 54.731393 
L 257.333123 54.852416 
L 258.418924 60.129191 
L 259.504725 73.056962 
L 260.590526 73.464169 
L 261.676327 71.715848 
L 262.762128 70.262278 
L 263.847929 65.336854 
L 264.933731 75.395318 
L 266.019532 69.671038 
L 267.105333 62.305158 
L 268.191134 62.981302 
L 269.276935 71.596508 
L 270.362736 73.373826 
L 271.448538 65.126694 
L 272.534339 63.421201 
L 273.62014 71.137438 
L 274.705941 69.594856 
L 275.791742 68.787731 
L 276.877543 67.775929 
L 277.963344 58.069005 
L 279.049146 53.568 
L 280.134947 64.035835 
L 281.220748 65.600294 
L 282.306549 74.869874 
L 283.39235 71.309939 
L 284.478151 73.205424 
L 285.563953 79.42506 
L 287.735555 55.01793 
L 288.821356 57.536784 
L 289.907157 59.763417 
L 290.992958 68.673895 
L 292.07876 62.434204 
L 293.164561 67.76646 
L 294.250362 71.166002 
L 295.336163 63.06252 
L 296.421964 67.174063 
L 297.507765 61.28053 
L 298.593566 67.478431 
L 299.679368 70.621043 
L 300.765169 68.446914 
L 301.85097 67.538515 
L 302.936771 67.62081 
L 304.022572 60.316259 
L 305.108373 62.913055 
L 306.194175 64.733982 
L 307.279976 61.752364 
L 308.365777 75.912853 
L 309.451578 73.291096 
L 310.537379 74.548561 
L 311.62318 75.597922 
L 312.708981 83.274783 
L 313.794783 84.117888 
L 314.880584 87.192537 
L 315.966385 72.311185 
L 317.052186 84.481079 
L 318.137987 81.360656 
L 319.223788 85.779767 
L 320.30959 61.682941 
L 321.395391 55.699917 
L 322.481192 61.22506 
L 323.566993 62.834148 
L 325.738595 72.702232 
L 326.824396 69.050186 
L 327.910198 69.925479 
L 328.995999 76.997889 
L 330.0818 62.880462 
L 331.167601 76.794624 
L 332.253402 69.45469 
L 333.339203 58.482484 
L 334.425005 71.001967 
L 335.510806 69.470579 
L 336.596607 72.954349 
L 337.682408 78.218912 
L 338.768209 71.853 
L 339.85401 72.706202 
L 340.939811 68.592276 
L 342.025613 67.066566 
L 343.111414 70.714589 
L 344.197215 75.019703 
L 345.283016 86.963138 
L 346.368817 87.05502 
L 347.454618 85.230015 
L 348.54042 78.561696 
L 349.626221 82.95849 
L 350.712022 84.954188 
L 351.797823 77.22478 
L 352.883624 79.809501 
L 353.969425 73.399627 
L 355.055227 76.087081 
L 356.141028 71.138195 
L 357.226829 76.81143 
L 358.31263 75.451718 
L 360.484232 79.239807 
L 361.570033 75.781725 
L 362.655835 76.006618 
L 363.741636 62.738581 
L 364.827437 77.453987 
L 365.913238 78.060376 
L 366.999039 77.733142 
L 368.08484 80.875767 
L 370.256443 84.070171 
L 371.342244 82.465342 
L 372.428045 75.831256 
L 373.513846 76.010752 
L 374.599647 78.665488 
L 375.685448 80.140876 
L 376.77125 79.175007 
L 377.857051 83.127042 
L 378.942852 83.719931 
L 380.028653 87.761188 
L 381.114454 83.953795 
L 382.200255 81.439805 
L 383.286057 82.190844 
L 384.371858 84.92085 
L 385.457659 84.239987 
L 386.54346 79.353325 
L 387.629261 78.847232 
L 388.715062 83.361867 
L 389.800863 81.288959 
L 393.058267 92.067657 
L 394.144068 88.946148 
L 395.229869 92.679542 
L 396.31567 88.593663 
L 397.401472 92.126589 
L 398.487273 93.36547 
L 398.487273 93.36547 
" style="fill:none;stroke:#666666;stroke-dasharray:1,1.65;stroke-dashoffset:0;"/>
    <defs>
     <path d="M 0 0.5 
C 0.132602 0.5 0.25979 0.447317 0.353553 0.353553 
C 0.447317 0.25979 0.5 0.132602 0.5 0 
C 0.5 -0.132602 0.447317 -0.25979 0.353553 -0.353553 
C 0.25979 -0.447317 0.132602 -0.5 0 -0.5 
C -0.132602 -0.5 -0.25979 -0.447317 -0.353553 -0.353553 
C -0.447317 -0.25979 -0.5 -0.132602 -0.5 0 
C -0.5 0.132602 -0.447317 0.25979 -0.353553 0.353553 
C -0.25979 0.447317 -0.132602 0.5 0 0.5 
z
" id="m89b5a77d92" style="stroke:#666666;"/>
    </defs>
    <g clip-path="url(#p23d1700bde)">
     <use style="fill:#666666;stroke:#666666;" x="73.832727" xlink:href="#m89b5a77d92" y="295.488"/>
     <use style="fill:#666666;stroke:#666666;" x="74.918528" xlink:href="#m89b5a77d92" y="197.414214"/>
     <use style="fill:#666666;stroke:#666666;" x="76.00433" xlink:href="#m89b5a77d92" y="181.652803"/>
     <use style="fill:#666666;stroke:#666666;" x="77.090131" xlink:href="#m89b5a77d92" y="169.574311"/>
     <use style="fill:#666666;stroke:#666666;" x="78.175932" xlink:href="#m89b5a77d92" y="157.096526"/>
     <use style="fill:#666666;stroke:#666666;" x="79.261733" xlink:href="#m89b5a77d92" y="158.773231"/>
     <use style="fill:#666666;stroke:#666666;" x="80.347534" xlink:href="#m89b5a77d92" y="155.493409"/>
     <use style="fill:#666666;stroke:#666666;" x="81.433335" xlink:href="#m89b5a77d92" y="148.784432"/>
     <use style="fill:#666666;stroke:#666666;" x="82.519137" xlink:href="#m89b5a77d92" y="147.094499"/>
     <use style="fill:#666666;stroke:#666666;" x="83.604938" xlink:href="#m89b5a77d92" y="145.769702"/>
     <use style="fill:#666666;stroke:#666666;" x="84.690739" xlink:href="#m89b5a77d92" y="149.301464"/>
     <use style="fill:#666666;stroke:#666666;" x="85.77654" xlink:href="#m89b5a77d92" y="152.312544"/>
     <use style="fill:#666666;stroke:#666666;" x="86.862341" xlink:href="#m89b5a77d92" y="153.87923"/>
     <use style="fill:#666666;stroke:#666666;" x="87.948142" xlink:href="#m89b5a77d92" y="152.264605"/>
     <use style="fill:#666666;stroke:#666666;" x="89.033943" xlink:href="#m89b5a77d92" y="149.645259"/>
     <use style="fill:#666666;stroke:#666666;" x="90.119745" xlink:href="#m89b5a77d92" y="137.015359"/>
     <use style="fill:#666666;stroke:#666666;" x="91.205546" xlink:href="#m89b5a77d92" y="137.224767"/>
     <use style="fill:#666666;stroke:#666666;" x="92.291347" xlink:href="#m89b5a77d92" y="135.481718"/>
     <use style="fill:#666666;stroke:#666666;" x="93.377148" xlink:href="#m89b5a77d92" y="133.726793"/>
     <use style="fill:#666666;stroke:#666666;" x="94.462949" xlink:href="#m89b5a77d92" y="134.423906"/>
     <use style="fill:#666666;stroke:#666666;" x="95.54875" xlink:href="#m89b5a77d92" y="127.486324"/>
     <use style="fill:#666666;stroke:#666666;" x="96.634552" xlink:href="#m89b5a77d92" y="126.573707"/>
     <use style="fill:#666666;stroke:#666666;" x="97.720353" xlink:href="#m89b5a77d92" y="127.915391"/>
     <use style="fill:#666666;stroke:#666666;" x="98.806154" xlink:href="#m89b5a77d92" y="129.600451"/>
     <use style="fill:#666666;stroke:#666666;" x="99.891955" xlink:href="#m89b5a77d92" y="123.792078"/>
     <use style="fill:#666666;stroke:#666666;" x="100.977756" xlink:href="#m89b5a77d92" y="125.406375"/>
     <use style="fill:#666666;stroke:#666666;" x="102.063557" xlink:href="#m89b5a77d92" y="125.996091"/>
     <use style="fill:#666666;stroke:#666666;" x="103.149358" xlink:href="#m89b5a77d92" y="128.639194"/>
     <use style="fill:#666666;stroke:#666666;" x="104.23516" xlink:href="#m89b5a77d92" y="131.003416"/>
     <use style="fill:#666666;stroke:#666666;" x="105.320961" xlink:href="#m89b5a77d92" y="129.408232"/>
     <use style="fill:#666666;stroke:#666666;" x="106.406762" xlink:href="#m89b5a77d92" y="127.325721"/>
     <use style="fill:#666666;stroke:#666666;" x="107.492563" xlink:href="#m89b5a77d92" y="127.532007"/>
     <use style="fill:#666666;stroke:#666666;" x="108.578364" xlink:href="#m89b5a77d92" y="129.147526"/>
     <use style="fill:#666666;stroke:#666666;" x="109.664165" xlink:href="#m89b5a77d92" y="128.766699"/>
     <use style="fill:#666666;stroke:#666666;" x="110.749967" xlink:href="#m89b5a77d92" y="128.59745"/>
     <use style="fill:#666666;stroke:#666666;" x="111.835768" xlink:href="#m89b5a77d92" y="127.507618"/>
     <use style="fill:#666666;stroke:#666666;" x="112.921569" xlink:href="#m89b5a77d92" y="127.141244"/>
     <use style="fill:#666666;stroke:#666666;" x="114.00737" xlink:href="#m89b5a77d92" y="126.211936"/>
     <use style="fill:#666666;stroke:#666666;" x="115.093171" xlink:href="#m89b5a77d92" y="123.445007"/>
     <use style="fill:#666666;stroke:#666666;" x="116.178972" xlink:href="#m89b5a77d92" y="123.237687"/>
     <use style="fill:#666666;stroke:#666666;" x="117.264773" xlink:href="#m89b5a77d92" y="124.0602"/>
     <use style="fill:#666666;stroke:#666666;" x="118.350575" xlink:href="#m89b5a77d92" y="122.944467"/>
     <use style="fill:#666666;stroke:#666666;" x="119.436376" xlink:href="#m89b5a77d92" y="126.162834"/>
     <use style="fill:#666666;stroke:#666666;" x="120.522177" xlink:href="#m89b5a77d92" y="126.940061"/>
     <use style="fill:#666666;stroke:#666666;" x="121.607978" xlink:href="#m89b5a77d92" y="125.064599"/>
     <use style="fill:#666666;stroke:#666666;" x="122.693779" xlink:href="#m89b5a77d92" y="128.100489"/>
     <use style="fill:#666666;stroke:#666666;" x="123.77958" xlink:href="#m89b5a77d92" y="127.873817"/>
     <use style="fill:#666666;stroke:#666666;" x="124.865382" xlink:href="#m89b5a77d92" y="127.470583"/>
     <use style="fill:#666666;stroke:#666666;" x="125.951183" xlink:href="#m89b5a77d92" y="127.110213"/>
     <use style="fill:#666666;stroke:#666666;" x="127.036984" xlink:href="#m89b5a77d92" y="117.30196"/>
     <use style="fill:#666666;stroke:#666666;" x="128.122785" xlink:href="#m89b5a77d92" y="118.346409"/>
     <use style="fill:#666666;stroke:#666666;" x="129.208586" xlink:href="#m89b5a77d92" y="118.347911"/>
     <use style="fill:#666666;stroke:#666666;" x="130.294387" xlink:href="#m89b5a77d92" y="118.502183"/>
     <use style="fill:#666666;stroke:#666666;" x="131.380189" xlink:href="#m89b5a77d92" y="118.101775"/>
     <use style="fill:#666666;stroke:#666666;" x="132.46599" xlink:href="#m89b5a77d92" y="116.178294"/>
     <use style="fill:#666666;stroke:#666666;" x="133.551791" xlink:href="#m89b5a77d92" y="115.249621"/>
     <use style="fill:#666666;stroke:#666666;" x="134.637592" xlink:href="#m89b5a77d92" y="114.12543"/>
     <use style="fill:#666666;stroke:#666666;" x="135.723393" xlink:href="#m89b5a77d92" y="116.377315"/>
     <use style="fill:#666666;stroke:#666666;" x="136.809194" xlink:href="#m89b5a77d92" y="116.464617"/>
     <use style="fill:#666666;stroke:#666666;" x="137.894995" xlink:href="#m89b5a77d92" y="116.7189"/>
     <use style="fill:#666666;stroke:#666666;" x="138.980797" xlink:href="#m89b5a77d92" y="114.685835"/>
     <use style="fill:#666666;stroke:#666666;" x="140.066598" xlink:href="#m89b5a77d92" y="117.835115"/>
     <use style="fill:#666666;stroke:#666666;" x="141.152399" xlink:href="#m89b5a77d92" y="115.807295"/>
     <use style="fill:#666666;stroke:#666666;" x="142.2382" xlink:href="#m89b5a77d92" y="112.284998"/>
     <use style="fill:#666666;stroke:#666666;" x="143.324001" xlink:href="#m89b5a77d92" y="112.173476"/>
     <use style="fill:#666666;stroke:#666666;" x="144.409802" xlink:href="#m89b5a77d92" y="110.754207"/>
     <use style="fill:#666666;stroke:#666666;" x="145.495604" xlink:href="#m89b5a77d92" y="105.765978"/>
     <use style="fill:#666666;stroke:#666666;" x="146.581405" xlink:href="#m89b5a77d92" y="105.511566"/>
     <use style="fill:#666666;stroke:#666666;" x="147.667206" xlink:href="#m89b5a77d92" y="107.296478"/>
     <use style="fill:#666666;stroke:#666666;" x="148.753007" xlink:href="#m89b5a77d92" y="102.753401"/>
     <use style="fill:#666666;stroke:#666666;" x="149.838808" xlink:href="#m89b5a77d92" y="104.796104"/>
     <use style="fill:#666666;stroke:#666666;" x="150.924609" xlink:href="#m89b5a77d92" y="107.64579"/>
     <use style="fill:#666666;stroke:#666666;" x="152.01041" xlink:href="#m89b5a77d92" y="106.706909"/>
     <use style="fill:#666666;stroke:#666666;" x="153.096212" xlink:href="#m89b5a77d92" y="101.46371"/>
     <use style="fill:#666666;stroke:#666666;" x="154.182013" xlink:href="#m89b5a77d92" y="99.001491"/>
     <use style="fill:#666666;stroke:#666666;" x="155.267814" xlink:href="#m89b5a77d92" y="98.696038"/>
     <use style="fill:#666666;stroke:#666666;" x="156.353615" xlink:href="#m89b5a77d92" y="97.345117"/>
     <use style="fill:#666666;stroke:#666666;" x="157.439416" xlink:href="#m89b5a77d92" y="99.281458"/>
     <use style="fill:#666666;stroke:#666666;" x="158.525217" xlink:href="#m89b5a77d92" y="98.694496"/>
     <use style="fill:#666666;stroke:#666666;" x="159.611019" xlink:href="#m89b5a77d92" y="100.510158"/>
     <use style="fill:#666666;stroke:#666666;" x="160.69682" xlink:href="#m89b5a77d92" y="101.085408"/>
     <use style="fill:#666666;stroke:#666666;" x="161.782621" xlink:href="#m89b5a77d92" y="97.448473"/>
     <use style="fill:#666666;stroke:#666666;" x="162.868422" xlink:href="#m89b5a77d92" y="91.553104"/>
     <use style="fill:#666666;stroke:#666666;" x="163.954223" xlink:href="#m89b5a77d92" y="89.909145"/>
     <use style="fill:#666666;stroke:#666666;" x="165.040024" xlink:href="#m89b5a77d92" y="87.952163"/>
     <use style="fill:#666666;stroke:#666666;" x="166.125825" xlink:href="#m89b5a77d92" y="87.112953"/>
     <use style="fill:#666666;stroke:#666666;" x="167.211627" xlink:href="#m89b5a77d92" y="88.932974"/>
     <use style="fill:#666666;stroke:#666666;" x="168.297428" xlink:href="#m89b5a77d92" y="91.030326"/>
     <use style="fill:#666666;stroke:#666666;" x="169.383229" xlink:href="#m89b5a77d92" y="94.559085"/>
     <use style="fill:#666666;stroke:#666666;" x="170.46903" xlink:href="#m89b5a77d92" y="100.817519"/>
     <use style="fill:#666666;stroke:#666666;" x="171.554831" xlink:href="#m89b5a77d92" y="100.541432"/>
     <use style="fill:#666666;stroke:#666666;" x="172.640632" xlink:href="#m89b5a77d92" y="96.219021"/>
     <use style="fill:#666666;stroke:#666666;" x="173.726434" xlink:href="#m89b5a77d92" y="95.828594"/>
     <use style="fill:#666666;stroke:#666666;" x="174.812235" xlink:href="#m89b5a77d92" y="95.063926"/>
     <use style="fill:#666666;stroke:#666666;" x="175.898036" xlink:href="#m89b5a77d92" y="94.842724"/>
     <use style="fill:#666666;stroke:#666666;" x="176.983837" xlink:href="#m89b5a77d92" y="93.420724"/>
     <use style="fill:#666666;stroke:#666666;" x="178.069638" xlink:href="#m89b5a77d92" y="95.753875"/>
     <use style="fill:#666666;stroke:#666666;" x="179.155439" xlink:href="#m89b5a77d92" y="90.717829"/>
     <use style="fill:#666666;stroke:#666666;" x="180.24124" xlink:href="#m89b5a77d92" y="93.886634"/>
     <use style="fill:#666666;stroke:#666666;" x="181.327042" xlink:href="#m89b5a77d92" y="88.87124"/>
     <use style="fill:#666666;stroke:#666666;" x="182.412843" xlink:href="#m89b5a77d92" y="86.011546"/>
     <use style="fill:#666666;stroke:#666666;" x="183.498644" xlink:href="#m89b5a77d92" y="82.857634"/>
     <use style="fill:#666666;stroke:#666666;" x="184.584445" xlink:href="#m89b5a77d92" y="83.351076"/>
     <use style="fill:#666666;stroke:#666666;" x="185.670246" xlink:href="#m89b5a77d92" y="81.997105"/>
     <use style="fill:#666666;stroke:#666666;" x="186.756047" xlink:href="#m89b5a77d92" y="87.322623"/>
     <use style="fill:#666666;stroke:#666666;" x="187.841849" xlink:href="#m89b5a77d92" y="81.870155"/>
     <use style="fill:#666666;stroke:#666666;" x="188.92765" xlink:href="#m89b5a77d92" y="86.633308"/>
     <use style="fill:#666666;stroke:#666666;" x="190.013451" xlink:href="#m89b5a77d92" y="84.261682"/>
     <use style="fill:#666666;stroke:#666666;" x="191.099252" xlink:href="#m89b5a77d92" y="81.870078"/>
     <use style="fill:#666666;stroke:#666666;" x="192.185053" xlink:href="#m89b5a77d92" y="85.266348"/>
     <use style="fill:#666666;stroke:#666666;" x="193.270854" xlink:href="#m89b5a77d92" y="84.244009"/>
     <use style="fill:#666666;stroke:#666666;" x="194.356656" xlink:href="#m89b5a77d92" y="82.484511"/>
     <use style="fill:#666666;stroke:#666666;" x="195.442457" xlink:href="#m89b5a77d92" y="83.246133"/>
     <use style="fill:#666666;stroke:#666666;" x="196.528258" xlink:href="#m89b5a77d92" y="86.626051"/>
     <use style="fill:#666666;stroke:#666666;" x="197.614059" xlink:href="#m89b5a77d92" y="83.266647"/>
     <use style="fill:#666666;stroke:#666666;" x="198.69986" xlink:href="#m89b5a77d92" y="78.499397"/>
     <use style="fill:#666666;stroke:#666666;" x="199.785661" xlink:href="#m89b5a77d92" y="76.724355"/>
     <use style="fill:#666666;stroke:#666666;" x="200.871462" xlink:href="#m89b5a77d92" y="76.239534"/>
     <use style="fill:#666666;stroke:#666666;" x="201.957264" xlink:href="#m89b5a77d92" y="77.585031"/>
     <use style="fill:#666666;stroke:#666666;" x="203.043065" xlink:href="#m89b5a77d92" y="81.293378"/>
     <use style="fill:#666666;stroke:#666666;" x="204.128866" xlink:href="#m89b5a77d92" y="78.587365"/>
     <use style="fill:#666666;stroke:#666666;" x="205.214667" xlink:href="#m89b5a77d92" y="77.205254"/>
     <use style="fill:#666666;stroke:#666666;" x="206.300468" xlink:href="#m89b5a77d92" y="76.873438"/>
     <use style="fill:#666666;stroke:#666666;" x="207.386269" xlink:href="#m89b5a77d92" y="73.697947"/>
     <use style="fill:#666666;stroke:#666666;" x="208.472071" xlink:href="#m89b5a77d92" y="78.447379"/>
     <use style="fill:#666666;stroke:#666666;" x="209.557872" xlink:href="#m89b5a77d92" y="77.338338"/>
     <use style="fill:#666666;stroke:#666666;" x="210.643673" xlink:href="#m89b5a77d92" y="77.391446"/>
     <use style="fill:#666666;stroke:#666666;" x="211.729474" xlink:href="#m89b5a77d92" y="83.010833"/>
     <use style="fill:#666666;stroke:#666666;" x="212.815275" xlink:href="#m89b5a77d92" y="82.4729"/>
     <use style="fill:#666666;stroke:#666666;" x="213.901076" xlink:href="#m89b5a77d92" y="80.402512"/>
     <use style="fill:#666666;stroke:#666666;" x="214.986877" xlink:href="#m89b5a77d92" y="88.125513"/>
     <use style="fill:#666666;stroke:#666666;" x="216.072679" xlink:href="#m89b5a77d92" y="83.311587"/>
     <use style="fill:#666666;stroke:#666666;" x="217.15848" xlink:href="#m89b5a77d92" y="89.753639"/>
     <use style="fill:#666666;stroke:#666666;" x="218.244281" xlink:href="#m89b5a77d92" y="83.448871"/>
     <use style="fill:#666666;stroke:#666666;" x="219.330082" xlink:href="#m89b5a77d92" y="83.848908"/>
     <use style="fill:#666666;stroke:#666666;" x="220.415883" xlink:href="#m89b5a77d92" y="83.493938"/>
     <use style="fill:#666666;stroke:#666666;" x="221.501684" xlink:href="#m89b5a77d92" y="78.951592"/>
     <use style="fill:#666666;stroke:#666666;" x="222.587486" xlink:href="#m89b5a77d92" y="75.932805"/>
     <use style="fill:#666666;stroke:#666666;" x="223.673287" xlink:href="#m89b5a77d92" y="74.384297"/>
     <use style="fill:#666666;stroke:#666666;" x="224.759088" xlink:href="#m89b5a77d92" y="80.012035"/>
     <use style="fill:#666666;stroke:#666666;" x="225.844889" xlink:href="#m89b5a77d92" y="78.272935"/>
     <use style="fill:#666666;stroke:#666666;" x="226.93069" xlink:href="#m89b5a77d92" y="76.961349"/>
     <use style="fill:#666666;stroke:#666666;" x="228.016491" xlink:href="#m89b5a77d92" y="81.130082"/>
     <use style="fill:#666666;stroke:#666666;" x="229.102292" xlink:href="#m89b5a77d92" y="77.983711"/>
     <use style="fill:#666666;stroke:#666666;" x="230.188094" xlink:href="#m89b5a77d92" y="77.405286"/>
     <use style="fill:#666666;stroke:#666666;" x="231.273895" xlink:href="#m89b5a77d92" y="68.244997"/>
     <use style="fill:#666666;stroke:#666666;" x="232.359696" xlink:href="#m89b5a77d92" y="80.71304"/>
     <use style="fill:#666666;stroke:#666666;" x="233.445497" xlink:href="#m89b5a77d92" y="63.431786"/>
     <use style="fill:#666666;stroke:#666666;" x="234.531298" xlink:href="#m89b5a77d92" y="58.143581"/>
     <use style="fill:#666666;stroke:#666666;" x="235.617099" xlink:href="#m89b5a77d92" y="54.513132"/>
     <use style="fill:#666666;stroke:#666666;" x="236.702901" xlink:href="#m89b5a77d92" y="63.554472"/>
     <use style="fill:#666666;stroke:#666666;" x="237.788702" xlink:href="#m89b5a77d92" y="60.38759"/>
     <use style="fill:#666666;stroke:#666666;" x="238.874503" xlink:href="#m89b5a77d92" y="63.33137"/>
     <use style="fill:#666666;stroke:#666666;" x="239.960304" xlink:href="#m89b5a77d92" y="70.808584"/>
     <use style="fill:#666666;stroke:#666666;" x="241.046105" xlink:href="#m89b5a77d92" y="62.896043"/>
     <use style="fill:#666666;stroke:#666666;" x="242.131906" xlink:href="#m89b5a77d92" y="56.428259"/>
     <use style="fill:#666666;stroke:#666666;" x="243.217708" xlink:href="#m89b5a77d92" y="57.026578"/>
     <use style="fill:#666666;stroke:#666666;" x="244.303509" xlink:href="#m89b5a77d92" y="73.588706"/>
     <use style="fill:#666666;stroke:#666666;" x="245.38931" xlink:href="#m89b5a77d92" y="73.504553"/>
     <use style="fill:#666666;stroke:#666666;" x="246.475111" xlink:href="#m89b5a77d92" y="82.831106"/>
     <use style="fill:#666666;stroke:#666666;" x="247.560912" xlink:href="#m89b5a77d92" y="62.045977"/>
     <use style="fill:#666666;stroke:#666666;" x="248.646713" xlink:href="#m89b5a77d92" y="61.722473"/>
     <use style="fill:#666666;stroke:#666666;" x="249.732514" xlink:href="#m89b5a77d92" y="68.529872"/>
     <use style="fill:#666666;stroke:#666666;" x="250.818316" xlink:href="#m89b5a77d92" y="73.781752"/>
     <use style="fill:#666666;stroke:#666666;" x="251.904117" xlink:href="#m89b5a77d92" y="58.84563"/>
     <use style="fill:#666666;stroke:#666666;" x="252.989918" xlink:href="#m89b5a77d92" y="60.113089"/>
     <use style="fill:#666666;stroke:#666666;" x="254.075719" xlink:href="#m89b5a77d92" y="61.034126"/>
     <use style="fill:#666666;stroke:#666666;" x="255.16152" xlink:href="#m89b5a77d92" y="58.323507"/>
     <use style="fill:#666666;stroke:#666666;" x="256.247321" xlink:href="#m89b5a77d92" y="54.731393"/>
     <use style="fill:#666666;stroke:#666666;" x="257.333123" xlink:href="#m89b5a77d92" y="54.852416"/>
     <use style="fill:#666666;stroke:#666666;" x="258.418924" xlink:href="#m89b5a77d92" y="60.129191"/>
     <use style="fill:#666666;stroke:#666666;" x="259.504725" xlink:href="#m89b5a77d92" y="73.056962"/>
     <use style="fill:#666666;stroke:#666666;" x="260.590526" xlink:href="#m89b5a77d92" y="73.464169"/>
     <use style="fill:#666666;stroke:#666666;" x="261.676327" xlink:href="#m89b5a77d92" y="71.715848"/>
     <use style="fill:#666666;stroke:#666666;" x="262.762128" xlink:href="#m89b5a77d92" y="70.262278"/>
     <use style="fill:#666666;stroke:#666666;" x="263.847929" xlink:href="#m89b5a77d92" y="65.336854"/>
     <use style="fill:#666666;stroke:#666666;" x="264.933731" xlink:href="#m89b5a77d92" y="75.395318"/>
     <use style="fill:#666666;stroke:#666666;" x="266.019532" xlink:href="#m89b5a77d92" y="69.671038"/>
     <use style="fill:#666666;stroke:#666666;" x="267.105333" xlink:href="#m89b5a77d92" y="62.305158"/>
     <use style="fill:#666666;stroke:#666666;" x="268.191134" xlink:href="#m89b5a77d92" y="62.981302"/>
     <use style="fill:#666666;stroke:#666666;" x="269.276935" xlink:href="#m89b5a77d92" y="71.596508"/>
     <use style="fill:#666666;stroke:#666666;" x="270.362736" xlink:href="#m89b5a77d92" y="73.373826"/>
     <use style="fill:#666666;stroke:#666666;" x="271.448538" xlink:href="#m89b5a77d92" y="65.126694"/>
     <use style="fill:#666666;stroke:#666666;" x="272.534339" xlink:href="#m89b5a77d92" y="63.421201"/>
     <use style="fill:#666666;stroke:#666666;" x="273.62014" xlink:href="#m89b5a77d92" y="71.137438"/>
     <use style="fill:#666666;stroke:#666666;" x="274.705941" xlink:href="#m89b5a77d92" y="69.594856"/>
     <use style="fill:#666666;stroke:#666666;" x="275.791742" xlink:href="#m89b5a77d92" y="68.787731"/>
     <use style="fill:#666666;stroke:#666666;" x="276.877543" xlink:href="#m89b5a77d92" y="67.775929"/>
     <use style="fill:#666666;stroke:#666666;" x="277.963344" xlink:href="#m89b5a77d92" y="58.069005"/>
     <use style="fill:#666666;stroke:#666666;" x="279.049146" xlink:href="#m89b5a77d92" y="53.568"/>
     <use style="fill:#666666;stroke:#666666;" x="280.134947" xlink:href="#m89b5a77d92" y="64.035835"/>
     <use style="fill:#666666;stroke:#666666;" x="281.220748" xlink:href="#m89b5a77d92" y="65.600294"/>
     <use style="fill:#666666;stroke:#666666;" x="282.306549" xlink:href="#m89b5a77d92" y="74.869874"/>
     <use style="fill:#666666;stroke:#666666;" x="283.39235" xlink:href="#m89b5a77d92" y="71.309939"/>
     <use style="fill:#666666;stroke:#666666;" x="284.478151" xlink:href="#m89b5a77d92" y="73.205424"/>
     <use style="fill:#666666;stroke:#666666;" x="285.563953" xlink:href="#m89b5a77d92" y="79.42506"/>
     <use style="fill:#666666;stroke:#666666;" x="286.649754" xlink:href="#m89b5a77d92" y="66.938887"/>
     <use style="fill:#666666;stroke:#666666;" x="287.735555" xlink:href="#m89b5a77d92" y="55.01793"/>
     <use style="fill:#666666;stroke:#666666;" x="288.821356" xlink:href="#m89b5a77d92" y="57.536784"/>
     <use style="fill:#666666;stroke:#666666;" x="289.907157" xlink:href="#m89b5a77d92" y="59.763417"/>
     <use style="fill:#666666;stroke:#666666;" x="290.992958" xlink:href="#m89b5a77d92" y="68.673895"/>
     <use style="fill:#666666;stroke:#666666;" x="292.07876" xlink:href="#m89b5a77d92" y="62.434204"/>
     <use style="fill:#666666;stroke:#666666;" x="293.164561" xlink:href="#m89b5a77d92" y="67.76646"/>
     <use style="fill:#666666;stroke:#666666;" x="294.250362" xlink:href="#m89b5a77d92" y="71.166002"/>
     <use style="fill:#666666;stroke:#666666;" x="295.336163" xlink:href="#m89b5a77d92" y="63.06252"/>
     <use style="fill:#666666;stroke:#666666;" x="296.421964" xlink:href="#m89b5a77d92" y="67.174063"/>
     <use style="fill:#666666;stroke:#666666;" x="297.507765" xlink:href="#m89b5a77d92" y="61.28053"/>
     <use style="fill:#666666;stroke:#666666;" x="298.593566" xlink:href="#m89b5a77d92" y="67.478431"/>
     <use style="fill:#666666;stroke:#666666;" x="299.679368" xlink:href="#m89b5a77d92" y="70.621043"/>
     <use style="fill:#666666;stroke:#666666;" x="300.765169" xlink:href="#m89b5a77d92" y="68.446914"/>
     <use style="fill:#666666;stroke:#666666;" x="301.85097" xlink:href="#m89b5a77d92" y="67.538515"/>
     <use style="fill:#666666;stroke:#666666;" x="302.936771" xlink:href="#m89b5a77d92" y="67.62081"/>
     <use style="fill:#666666;stroke:#666666;" x="304.022572" xlink:href="#m89b5a77d92" y="60.316259"/>
     <use style="fill:#666666;stroke:#666666;" x="305.108373" xlink:href="#m89b5a77d92" y="62.913055"/>
     <use style="fill:#666666;stroke:#666666;" x="306.194175" xlink:href="#m89b5a77d92" y="64.733982"/>
     <use style="fill:#666666;stroke:#666666;" x="307.279976" xlink:href="#m89b5a77d92" y="61.752364"/>
     <use style="fill:#666666;stroke:#666666;" x="308.365777" xlink:href="#m89b5a77d92" y="75.912853"/>
     <use style="fill:#666666;stroke:#666666;" x="309.451578" xlink:href="#m89b5a77d92" y="73.291096"/>
     <use style="fill:#666666;stroke:#666666;" x="310.537379" xlink:href="#m89b5a77d92" y="74.548561"/>
     <use style="fill:#666666;stroke:#666666;" x="311.62318" xlink:href="#m89b5a77d92" y="75.597922"/>
     <use style="fill:#666666;stroke:#666666;" x="312.708981" xlink:href="#m89b5a77d92" y="83.274783"/>
     <use style="fill:#666666;stroke:#666666;" x="313.794783" xlink:href="#m89b5a77d92" y="84.117888"/>
     <use style="fill:#666666;stroke:#666666;" x="314.880584" xlink:href="#m89b5a77d92" y="87.192537"/>
     <use style="fill:#666666;stroke:#666666;" x="315.966385" xlink:href="#m89b5a77d92" y="72.311185"/>
     <use style="fill:#666666;stroke:#666666;" x="317.052186" xlink:href="#m89b5a77d92" y="84.481079"/>
     <use style="fill:#666666;stroke:#666666;" x="318.137987" xlink:href="#m89b5a77d92" y="81.360656"/>
     <use style="fill:#666666;stroke:#666666;" x="319.223788" xlink:href="#m89b5a77d92" y="85.779767"/>
     <use style="fill:#666666;stroke:#666666;" x="320.30959" xlink:href="#m89b5a77d92" y="61.682941"/>
     <use style="fill:#666666;stroke:#666666;" x="321.395391" xlink:href="#m89b5a77d92" y="55.699917"/>
     <use style="fill:#666666;stroke:#666666;" x="322.481192" xlink:href="#m89b5a77d92" y="61.22506"/>
     <use style="fill:#666666;stroke:#666666;" x="323.566993" xlink:href="#m89b5a77d92" y="62.834148"/>
     <use style="fill:#666666;stroke:#666666;" x="324.652794" xlink:href="#m89b5a77d92" y="67.610601"/>
     <use style="fill:#666666;stroke:#666666;" x="325.738595" xlink:href="#m89b5a77d92" y="72.702232"/>
     <use style="fill:#666666;stroke:#666666;" x="326.824396" xlink:href="#m89b5a77d92" y="69.050186"/>
     <use style="fill:#666666;stroke:#666666;" x="327.910198" xlink:href="#m89b5a77d92" y="69.925479"/>
     <use style="fill:#666666;stroke:#666666;" x="328.995999" xlink:href="#m89b5a77d92" y="76.997889"/>
     <use style="fill:#666666;stroke:#666666;" x="330.0818" xlink:href="#m89b5a77d92" y="62.880462"/>
     <use style="fill:#666666;stroke:#666666;" x="331.167601" xlink:href="#m89b5a77d92" y="76.794624"/>
     <use style="fill:#666666;stroke:#666666;" x="332.253402" xlink:href="#m89b5a77d92" y="69.45469"/>
     <use style="fill:#666666;stroke:#666666;" x="333.339203" xlink:href="#m89b5a77d92" y="58.482484"/>
     <use style="fill:#666666;stroke:#666666;" x="334.425005" xlink:href="#m89b5a77d92" y="71.001967"/>
     <use style="fill:#666666;stroke:#666666;" x="335.510806" xlink:href="#m89b5a77d92" y="69.470579"/>
     <use style="fill:#666666;stroke:#666666;" x="336.596607" xlink:href="#m89b5a77d92" y="72.954349"/>
     <use style="fill:#666666;stroke:#666666;" x="337.682408" xlink:href="#m89b5a77d92" y="78.218912"/>
     <use style="fill:#666666;stroke:#666666;" x="338.768209" xlink:href="#m89b5a77d92" y="71.853"/>
     <use style="fill:#666666;stroke:#666666;" x="339.85401" xlink:href="#m89b5a77d92" y="72.706202"/>
     <use style="fill:#666666;stroke:#666666;" x="340.939811" xlink:href="#m89b5a77d92" y="68.592276"/>
     <use style="fill:#666666;stroke:#666666;" x="342.025613" xlink:href="#m89b5a77d92" y="67.066566"/>
     <use style="fill:#666666;stroke:#666666;" x="343.111414" xlink:href="#m89b5a77d92" y="70.714589"/>
     <use style="fill:#666666;stroke:#666666;" x="344.197215" xlink:href="#m89b5a77d92" y="75.019703"/>
     <use style="fill:#666666;stroke:#666666;" x="345.283016" xlink:href="#m89b5a77d92" y="86.963138"/>
     <use style="fill:#666666;stroke:#666666;" x="346.368817" xlink:href="#m89b5a77d92" y="87.05502"/>
     <use style="fill:#666666;stroke:#666666;" x="347.454618" xlink:href="#m89b5a77d92" y="85.230015"/>
     <use style="fill:#666666;stroke:#666666;" x="348.54042" xlink:href="#m89b5a77d92" y="78.561696"/>
     <use style="fill:#666666;stroke:#666666;" x="349.626221" xlink:href="#m89b5a77d92" y="82.95849"/>
     <use style="fill:#666666;stroke:#666666;" x="350.712022" xlink:href="#m89b5a77d92" y="84.954188"/>
     <use style="fill:#666666;stroke:#666666;" x="351.797823" xlink:href="#m89b5a77d92" y="77.22478"/>
     <use style="fill:#666666;stroke:#666666;" x="352.883624" xlink:href="#m89b5a77d92" y="79.809501"/>
     <use style="fill:#666666;stroke:#666666;" x="353.969425" xlink:href="#m89b5a77d92" y="73.399627"/>
     <use style="fill:#666666;stroke:#666666;" x="355.055227" xlink:href="#m89b5a77d92" y="76.087081"/>
     <use style="fill:#666666;stroke:#666666;" x="356.141028" xlink:href="#m89b5a77d92" y="71.138195"/>
     <use style="fill:#666666;stroke:#666666;" x="357.226829" xlink:href="#m89b5a77d92" y="76.81143"/>
     <use style="fill:#666666;stroke:#666666;" x="358.31263" xlink:href="#m89b5a77d92" y="75.451718"/>
     <use style="fill:#666666;stroke:#666666;" x="359.398431" xlink:href="#m89b5a77d92" y="77.327125"/>
     <use style="fill:#666666;stroke:#666666;" x="360.484232" xlink:href="#m89b5a77d92" y="79.239807"/>
     <use style="fill:#666666;stroke:#666666;" x="361.570033" xlink:href="#m89b5a77d92" y="75.781725"/>
     <use style="fill:#666666;stroke:#666666;" x="362.655835" xlink:href="#m89b5a77d92" y="76.006618"/>
     <use style="fill:#666666;stroke:#666666;" x="363.741636" xlink:href="#m89b5a77d92" y="62.738581"/>
     <use style="fill:#666666;stroke:#666666;" x="364.827437" xlink:href="#m89b5a77d92" y="77.453987"/>
     <use style="fill:#666666;stroke:#666666;" x="365.913238" xlink:href="#m89b5a77d92" y="78.060376"/>
     <use style="fill:#666666;stroke:#666666;" x="366.999039" xlink:href="#m89b5a77d92" y="77.733142"/>
     <use style="fill:#666666;stroke:#666666;" x="368.08484" xlink:href="#m89b5a77d92" y="80.875767"/>
     <use style="fill:#666666;stroke:#666666;" x="369.170642" xlink:href="#m89b5a77d92" y="82.419247"/>
     <use style="fill:#666666;stroke:#666666;" x="370.256443" xlink:href="#m89b5a77d92" y="84.070171"/>
     <use style="fill:#666666;stroke:#666666;" x="371.342244" xlink:href="#m89b5a77d92" y="82.465342"/>
     <use style="fill:#666666;stroke:#666666;" x="372.428045" xlink:href="#m89b5a77d92" y="75.831256"/>
     <use style="fill:#666666;stroke:#666666;" x="373.513846" xlink:href="#m89b5a77d92" y="76.010752"/>
     <use style="fill:#666666;stroke:#666666;" x="374.599647" xlink:href="#m89b5a77d92" y="78.665488"/>
     <use style="fill:#666666;stroke:#666666;" x="375.685448" xlink:href="#m89b5a77d92" y="80.140876"/>
     <use style="fill:#666666;stroke:#666666;" x="376.77125" xlink:href="#m89b5a77d92" y="79.175007"/>
     <use style="fill:#666666;stroke:#666666;" x="377.857051" xlink:href="#m89b5a77d92" y="83.127042"/>
     <use style="fill:#666666;stroke:#666666;" x="378.942852" xlink:href="#m89b5a77d92" y="83.719931"/>
     <use style="fill:#666666;stroke:#666666;" x="380.028653" xlink:href="#m89b5a77d92" y="87.761188"/>
     <use style="fill:#666666;stroke:#666666;" x="381.114454" xlink:href="#m89b5a77d92" y="83.953795"/>
     <use style="fill:#666666;stroke:#666666;" x="382.200255" xlink:href="#m89b5a77d92" y="81.439805"/>
     <use style="fill:#666666;stroke:#666666;" x="383.286057" xlink:href="#m89b5a77d92" y="82.190844"/>
     <use style="fill:#666666;stroke:#666666;" x="384.371858" xlink:href="#m89b5a77d92" y="84.92085"/>
     <use style="fill:#666666;stroke:#666666;" x="385.457659" xlink:href="#m89b5a77d92" y="84.239987"/>
     <use style="fill:#666666;stroke:#666666;" x="386.54346" xlink:href="#m89b5a77d92" y="79.353325"/>
     <use style="fill:#666666;stroke:#666666;" x="387.629261" xlink:href="#m89b5a77d92" y="78.847232"/>
     <use style="fill:#666666;stroke:#666666;" x="388.715062" xlink:href="#m89b5a77d92" y="83.361867"/>
     <use style="fill:#666666;stroke:#666666;" x="389.800863" xlink:href="#m89b5a77d92" y="81.288959"/>
     <use style="fill:#666666;stroke:#666666;" x="390.886665" xlink:href="#m89b5a77d92" y="84.947692"/>
     <use style="fill:#666666;stroke:#666666;" x="391.972466" xlink:href="#m89b5a77d92" y="88.855573"/>
     <use style="fill:#666666;stroke:#666666;" x="393.058267" xlink:href="#m89b5a77d92" y="92.067657"/>
     <use style="fill:#666666;stroke:#666666;" x="394.144068" xlink:href="#m89b5a77d92" y="88.946148"/>
     <use style="fill:#666666;stroke:#666666;" x="395.229869" xlink:href="#m89b5a77d92" y="92.679542"/>
     <use style="fill:#666666;stroke:#666666;" x="396.31567" xlink:href="#m89b5a77d92" y="88.593663"/>
     <use style="fill:#666666;stroke:#666666;" x="397.401472" xlink:href="#m89b5a77d92" y="92.126589"/>
     <use style="fill:#666666;stroke:#666666;" x="398.487273" xlink:href="#m89b5a77d92" y="93.36547"/>
    </g>
   </g>
   <g id="patch_3">
    <path d="M 57.6 307.584 
L 57.6 41.472 
" style="fill:none;stroke:#000000;stroke-linecap:square;stroke-linejoin:miter;stroke-width:0.8;"/>
   </g>
   <g id="patch_4">
    <path d="M 414.72 307.584 
L 414.72 41.472 
" style="fill:none;stroke:#000000;stroke-linecap:square;stroke-linejoin:miter;stroke-width:0.8;"/>
   </g>
   <g id="patch_5">
    <path d="M 57.6 307.584 
L 414.72 307.584 
" style="fill:none;stroke:#000000;stroke-linecap:square;stroke-linejoin:miter;stroke-width:0.8;"/>
   </g>
   <g id="patch_6">
    <path d="M 57.6 41.472 
L 414.72 41.472 
" style="fill:none;stroke:#000000;stroke-linecap:square;stroke-linejoin:miter;stroke-width:0.8;"/>
   </g>
  </g>
 </g>
 <defs>
  <clipPath id="p23d1700bde">
   <rect height="266.112" width="357.12" x="57.6" y="41.472"/>
  </clipPath>
 </defs>
</svg>
