<?xml version="1.0" encoding="utf-8" standalone="no"?>
<!DOCTYPE svg PUBLIC "-//W3C//DTD SVG 1.1//EN"
  "http://www.w3.org/Graphics/SVG/1.1/DTD/svg11.dtd">
<!-- Created with matplotlib (http://matplotlib.org/) -->
<svg height="345.6pt" version="1.1" viewBox="0 0 460.8 345.6" width="460.8pt" xmlns="http://www.w3.org/2000/svg" xmlns:xlink="http://www.w3.org/1999/xlink">
 <defs>
  <style type="text/css">
*{stroke-linecap:butt;stroke-linejoin:round;}
  </style>
 </defs>
 <g id="figure_1">
  <g id="patch_1">
   <path d="M 0 345.6 
L 460.8 345.6 
L 460.8 0 
L 0 0 
z
" style="fill:#ffffff;"/>
  </g>
  <g id="axes_1">
   <g id="patch_2">
    <path d="M 38.27 287.8 
L 447.48 287.8 
L 447.48 14.777318 
L 38.27 14.777318 
z
" style="fill:#ffffff;"/>
   </g>
   <g id="matplotlib.axis_1">
    <g id="xtick_1">
     <g id="line2d_1">
      <defs>
       <path d="M 0 0 
L 0 3.5 
" id="m35525d14ab" style="stroke:#000000;stroke-width:0.8;"/>
      </defs>
      <g>
       <use style="stroke:#000000;stroke-width:0.8;" x="38.27" xlink:href="#m35525d14ab" y="287.8"/>
      </g>
     </g>
     <g id="text_1">
      <!-- A1 -->
      <defs>
       <path d="M 34.1875 63.1875 
L 20.796875 26.90625 
L 47.609375 26.90625 
z
M 28.609375 72.90625 
L 39.796875 72.90625 
L 67.578125 0 
L 57.328125 0 
L 50.6875 18.703125 
L 17.828125 18.703125 
L 11.1875 0 
L 0.78125 0 
z
" id="DejaVuSans-41"/>
       <path d="M 12.40625 8.296875 
L 28.515625 8.296875 
L 28.515625 63.921875 
L 10.984375 60.40625 
L 10.984375 69.390625 
L 28.421875 72.90625 
L 38.28125 72.90625 
L 38.28125 8.296875 
L 54.390625 8.296875 
L 54.390625 0 
L 12.40625 0 
z
" id="DejaVuSans-31"/>
      </defs>
      <g transform="translate(41.029375 308.003125)rotate(-90)scale(0.1 -0.1)">
       <use xlink:href="#DejaVuSans-41"/>
       <use x="68.408203" xlink:href="#DejaVuSans-31"/>
      </g>
     </g>
    </g>
    <g id="xtick_2">
     <g id="line2d_2">
      <g>
       <use style="stroke:#000000;stroke-width:0.8;" x="57.451719" xlink:href="#m35525d14ab" y="287.8"/>
      </g>
     </g>
     <g id="text_2">
      <!-- A7 -->
      <defs>
       <path d="M 8.203125 72.90625 
L 55.078125 72.90625 
L 55.078125 68.703125 
L 28.609375 0 
L 18.3125 0 
L 43.21875 64.59375 
L 8.203125 64.59375 
z
" id="DejaVuSans-37"/>
      </defs>
      <g transform="translate(60.211094 308.003125)rotate(-90)scale(0.1 -0.1)">
       <use xlink:href="#DejaVuSans-41"/>
       <use x="68.408203" xlink:href="#DejaVuSans-37"/>
      </g>
     </g>
    </g>
    <g id="xtick_3">
     <g id="line2d_3">
      <g>
       <use style="stroke:#000000;stroke-width:0.8;" x="76.633438" xlink:href="#m35525d14ab" y="287.8"/>
      </g>
     </g>
     <g id="text_3">
      <!-- A13 -->
      <defs>
       <path d="M 40.578125 39.3125 
Q 47.65625 37.796875 51.625 33 
Q 55.609375 28.21875 55.609375 21.1875 
Q 55.609375 10.40625 48.1875 4.484375 
Q 40.765625 -1.421875 27.09375 -1.421875 
Q 22.515625 -1.421875 17.65625 -0.515625 
Q 12.796875 0.390625 7.625 2.203125 
L 7.625 11.71875 
Q 11.71875 9.328125 16.59375 8.109375 
Q 21.484375 6.890625 26.8125 6.890625 
Q 36.078125 6.890625 40.9375 10.546875 
Q 45.796875 14.203125 45.796875 21.1875 
Q 45.796875 27.640625 41.28125 31.265625 
Q 36.765625 34.90625 28.71875 34.90625 
L 20.21875 34.90625 
L 20.21875 43.015625 
L 29.109375 43.015625 
Q 36.375 43.015625 40.234375 45.921875 
Q 44.09375 48.828125 44.09375 54.296875 
Q 44.09375 59.90625 40.109375 62.90625 
Q 36.140625 65.921875 28.71875 65.921875 
Q 24.65625 65.921875 20.015625 65.03125 
Q 15.375 64.15625 9.8125 62.3125 
L 9.8125 71.09375 
Q 15.4375 72.65625 20.34375 73.4375 
Q 25.25 74.21875 29.59375 74.21875 
Q 40.828125 74.21875 47.359375 69.109375 
Q 53.90625 64.015625 53.90625 55.328125 
Q 53.90625 49.265625 50.4375 45.09375 
Q 46.96875 40.921875 40.578125 39.3125 
z
" id="DejaVuSans-33"/>
      </defs>
      <g transform="translate(79.392813 314.365625)rotate(-90)scale(0.1 -0.1)">
       <use xlink:href="#DejaVuSans-41"/>
       <use x="68.408203" xlink:href="#DejaVuSans-31"/>
       <use x="132.03125" xlink:href="#DejaVuSans-33"/>
      </g>
     </g>
    </g>
    <g id="xtick_4">
     <g id="line2d_4">
      <g>
       <use style="stroke:#000000;stroke-width:0.8;" x="95.815156" xlink:href="#m35525d14ab" y="287.8"/>
      </g>
     </g>
     <g id="text_4">
      <!-- A19 -->
      <defs>
       <path d="M 10.984375 1.515625 
L 10.984375 10.5 
Q 14.703125 8.734375 18.5 7.8125 
Q 22.3125 6.890625 25.984375 6.890625 
Q 35.75 6.890625 40.890625 13.453125 
Q 46.046875 20.015625 46.78125 33.40625 
Q 43.953125 29.203125 39.59375 26.953125 
Q 35.25 24.703125 29.984375 24.703125 
Q 19.046875 24.703125 12.671875 31.3125 
Q 6.296875 37.9375 6.296875 49.421875 
Q 6.296875 60.640625 12.9375 67.421875 
Q 19.578125 74.21875 30.609375 74.21875 
Q 43.265625 74.21875 49.921875 64.515625 
Q 56.59375 54.828125 56.59375 36.375 
Q 56.59375 19.140625 48.40625 8.859375 
Q 40.234375 -1.421875 26.421875 -1.421875 
Q 22.703125 -1.421875 18.890625 -0.6875 
Q 15.09375 0.046875 10.984375 1.515625 
z
M 30.609375 32.421875 
Q 37.25 32.421875 41.125 36.953125 
Q 45.015625 41.5 45.015625 49.421875 
Q 45.015625 57.28125 41.125 61.84375 
Q 37.25 66.40625 30.609375 66.40625 
Q 23.96875 66.40625 20.09375 61.84375 
Q 16.21875 57.28125 16.21875 49.421875 
Q 16.21875 41.5 20.09375 36.953125 
Q 23.96875 32.421875 30.609375 32.421875 
z
" id="DejaVuSans-39"/>
      </defs>
      <g transform="translate(98.574531 314.365625)rotate(-90)scale(0.1 -0.1)">
       <use xlink:href="#DejaVuSans-41"/>
       <use x="68.408203" xlink:href="#DejaVuSans-31"/>
       <use x="132.03125" xlink:href="#DejaVuSans-39"/>
      </g>
     </g>
    </g>
    <g id="xtick_5">
     <g id="line2d_5">
      <g>
       <use style="stroke:#000000;stroke-width:0.8;" x="114.996875" xlink:href="#m35525d14ab" y="287.8"/>
      </g>
     </g>
     <g id="text_5">
      <!-- A25 -->
      <defs>
       <path d="M 19.1875 8.296875 
L 53.609375 8.296875 
L 53.609375 0 
L 7.328125 0 
L 7.328125 8.296875 
Q 12.9375 14.109375 22.625 23.890625 
Q 32.328125 33.6875 34.8125 36.53125 
Q 39.546875 41.84375 41.421875 45.53125 
Q 43.3125 49.21875 43.3125 52.78125 
Q 43.3125 58.59375 39.234375 62.25 
Q 35.15625 65.921875 28.609375 65.921875 
Q 23.96875 65.921875 18.8125 64.3125 
Q 13.671875 62.703125 7.8125 59.421875 
L 7.8125 69.390625 
Q 13.765625 71.78125 18.9375 73 
Q 24.125 74.21875 28.421875 74.21875 
Q 39.75 74.21875 46.484375 68.546875 
Q 53.21875 62.890625 53.21875 53.421875 
Q 53.21875 48.921875 51.53125 44.890625 
Q 49.859375 40.875 45.40625 35.40625 
Q 44.1875 33.984375 37.640625 27.21875 
Q 31.109375 20.453125 19.1875 8.296875 
z
" id="DejaVuSans-32"/>
       <path d="M 10.796875 72.90625 
L 49.515625 72.90625 
L 49.515625 64.59375 
L 19.828125 64.59375 
L 19.828125 46.734375 
Q 21.96875 47.46875 24.109375 47.828125 
Q 26.265625 48.1875 28.421875 48.1875 
Q 40.625 48.1875 47.75 41.5 
Q 54.890625 34.8125 54.890625 23.390625 
Q 54.890625 11.625 47.5625 5.09375 
Q 40.234375 -1.421875 26.90625 -1.421875 
Q 22.3125 -1.421875 17.546875 -0.640625 
Q 12.796875 0.140625 7.71875 1.703125 
L 7.71875 11.625 
Q 12.109375 9.234375 16.796875 8.0625 
Q 21.484375 6.890625 26.703125 6.890625 
Q 35.15625 6.890625 40.078125 11.328125 
Q 45.015625 15.765625 45.015625 23.390625 
Q 45.015625 31 40.078125 35.4375 
Q 35.15625 39.890625 26.703125 39.890625 
Q 22.75 39.890625 18.8125 39.015625 
Q 14.890625 38.140625 10.796875 36.28125 
z
" id="DejaVuSans-35"/>
      </defs>
      <g transform="translate(117.75625 314.365625)rotate(-90)scale(0.1 -0.1)">
       <use xlink:href="#DejaVuSans-41"/>
       <use x="68.408203" xlink:href="#DejaVuSans-32"/>
       <use x="132.03125" xlink:href="#DejaVuSans-35"/>
      </g>
     </g>
    </g>
    <g id="xtick_6">
     <g id="line2d_6">
      <g>
       <use style="stroke:#000000;stroke-width:0.8;" x="134.178594" xlink:href="#m35525d14ab" y="287.8"/>
      </g>
     </g>
     <g id="text_6">
      <!-- A31 -->
      <g transform="translate(136.937969 314.365625)rotate(-90)scale(0.1 -0.1)">
       <use xlink:href="#DejaVuSans-41"/>
       <use x="68.408203" xlink:href="#DejaVuSans-33"/>
       <use x="132.03125" xlink:href="#DejaVuSans-31"/>
      </g>
     </g>
    </g>
    <g id="xtick_7">
     <g id="line2d_7">
      <g>
       <use style="stroke:#000000;stroke-width:0.8;" x="153.360313" xlink:href="#m35525d14ab" y="287.8"/>
      </g>
     </g>
     <g id="text_7">
      <!-- A37 -->
      <g transform="translate(156.119688 314.365625)rotate(-90)scale(0.1 -0.1)">
       <use xlink:href="#DejaVuSans-41"/>
       <use x="68.408203" xlink:href="#DejaVuSans-33"/>
       <use x="132.03125" xlink:href="#DejaVuSans-37"/>
      </g>
     </g>
    </g>
    <g id="xtick_8">
     <g id="line2d_8">
      <g>
       <use style="stroke:#000000;stroke-width:0.8;" x="172.542031" xlink:href="#m35525d14ab" y="287.8"/>
      </g>
     </g>
     <g id="text_8">
      <!-- A43 -->
      <defs>
       <path d="M 37.796875 64.3125 
L 12.890625 25.390625 
L 37.796875 25.390625 
z
M 35.203125 72.90625 
L 47.609375 72.90625 
L 47.609375 25.390625 
L 58.015625 25.390625 
L 58.015625 17.1875 
L 47.609375 17.1875 
L 47.609375 0 
L 37.796875 0 
L 37.796875 17.1875 
L 4.890625 17.1875 
L 4.890625 26.703125 
z
" id="DejaVuSans-34"/>
      </defs>
      <g transform="translate(175.301406 314.365625)rotate(-90)scale(0.1 -0.1)">
       <use xlink:href="#DejaVuSans-41"/>
       <use x="68.408203" xlink:href="#DejaVuSans-34"/>
       <use x="132.03125" xlink:href="#DejaVuSans-33"/>
      </g>
     </g>
    </g>
    <g id="xtick_9">
     <g id="line2d_9">
      <g>
       <use style="stroke:#000000;stroke-width:0.8;" x="191.72375" xlink:href="#m35525d14ab" y="287.8"/>
      </g>
     </g>
     <g id="text_9">
      <!-- A49 -->
      <g transform="translate(194.483125 314.365625)rotate(-90)scale(0.1 -0.1)">
       <use xlink:href="#DejaVuSans-41"/>
       <use x="68.408203" xlink:href="#DejaVuSans-34"/>
       <use x="132.03125" xlink:href="#DejaVuSans-39"/>
      </g>
     </g>
    </g>
    <g id="xtick_10">
     <g id="line2d_10">
      <g>
       <use style="stroke:#000000;stroke-width:0.8;" x="210.905469" xlink:href="#m35525d14ab" y="287.8"/>
      </g>
     </g>
     <g id="text_10">
      <!-- A55 -->
      <g transform="translate(213.664844 314.365625)rotate(-90)scale(0.1 -0.1)">
       <use xlink:href="#DejaVuSans-41"/>
       <use x="68.408203" xlink:href="#DejaVuSans-35"/>
       <use x="132.03125" xlink:href="#DejaVuSans-35"/>
      </g>
     </g>
    </g>
    <g id="xtick_11">
     <g id="line2d_11">
      <g>
       <use style="stroke:#000000;stroke-width:0.8;" x="230.087188" xlink:href="#m35525d14ab" y="287.8"/>
      </g>
     </g>
     <g id="text_11">
      <!-- A61 -->
      <defs>
       <path d="M 33.015625 40.375 
Q 26.375 40.375 22.484375 35.828125 
Q 18.609375 31.296875 18.609375 23.390625 
Q 18.609375 15.53125 22.484375 10.953125 
Q 26.375 6.390625 33.015625 6.390625 
Q 39.65625 6.390625 43.53125 10.953125 
Q 47.40625 15.53125 47.40625 23.390625 
Q 47.40625 31.296875 43.53125 35.828125 
Q 39.65625 40.375 33.015625 40.375 
z
M 52.59375 71.296875 
L 52.59375 62.3125 
Q 48.875 64.0625 45.09375 64.984375 
Q 41.3125 65.921875 37.59375 65.921875 
Q 27.828125 65.921875 22.671875 59.328125 
Q 17.53125 52.734375 16.796875 39.40625 
Q 19.671875 43.65625 24.015625 45.921875 
Q 28.375 48.1875 33.59375 48.1875 
Q 44.578125 48.1875 50.953125 41.515625 
Q 57.328125 34.859375 57.328125 23.390625 
Q 57.328125 12.15625 50.6875 5.359375 
Q 44.046875 -1.421875 33.015625 -1.421875 
Q 20.359375 -1.421875 13.671875 8.265625 
Q 6.984375 17.96875 6.984375 36.375 
Q 6.984375 53.65625 15.1875 63.9375 
Q 23.390625 74.21875 37.203125 74.21875 
Q 40.921875 74.21875 44.703125 73.484375 
Q 48.484375 72.75 52.59375 71.296875 
z
" id="DejaVuSans-36"/>
      </defs>
      <g transform="translate(232.846563 314.365625)rotate(-90)scale(0.1 -0.1)">
       <use xlink:href="#DejaVuSans-41"/>
       <use x="68.408203" xlink:href="#DejaVuSans-36"/>
       <use x="132.03125" xlink:href="#DejaVuSans-31"/>
      </g>
     </g>
    </g>
    <g id="xtick_12">
     <g id="line2d_12">
      <g>
       <use style="stroke:#000000;stroke-width:0.8;" x="249.268906" xlink:href="#m35525d14ab" y="287.8"/>
      </g>
     </g>
     <g id="text_12">
      <!-- A67 -->
      <g transform="translate(252.028281 314.365625)rotate(-90)scale(0.1 -0.1)">
       <use xlink:href="#DejaVuSans-41"/>
       <use x="68.408203" xlink:href="#DejaVuSans-36"/>
       <use x="132.03125" xlink:href="#DejaVuSans-37"/>
      </g>
     </g>
    </g>
    <g id="xtick_13">
     <g id="line2d_13">
      <g>
       <use style="stroke:#000000;stroke-width:0.8;" x="268.450625" xlink:href="#m35525d14ab" y="287.8"/>
      </g>
     </g>
     <g id="text_13">
      <!-- A73 -->
      <g transform="translate(271.21 314.365625)rotate(-90)scale(0.1 -0.1)">
       <use xlink:href="#DejaVuSans-41"/>
       <use x="68.408203" xlink:href="#DejaVuSans-37"/>
       <use x="132.03125" xlink:href="#DejaVuSans-33"/>
      </g>
     </g>
    </g>
    <g id="xtick_14">
     <g id="line2d_14">
      <g>
       <use style="stroke:#000000;stroke-width:0.8;" x="287.632344" xlink:href="#m35525d14ab" y="287.8"/>
      </g>
     </g>
     <g id="text_14">
      <!-- A79 -->
      <g transform="translate(290.391719 314.365625)rotate(-90)scale(0.1 -0.1)">
       <use xlink:href="#DejaVuSans-41"/>
       <use x="68.408203" xlink:href="#DejaVuSans-37"/>
       <use x="132.03125" xlink:href="#DejaVuSans-39"/>
      </g>
     </g>
    </g>
    <g id="xtick_15">
     <g id="line2d_15">
      <g>
       <use style="stroke:#000000;stroke-width:0.8;" x="306.814062" xlink:href="#m35525d14ab" y="287.8"/>
      </g>
     </g>
     <g id="text_15">
      <!-- A85 -->
      <defs>
       <path d="M 31.78125 34.625 
Q 24.75 34.625 20.71875 30.859375 
Q 16.703125 27.09375 16.703125 20.515625 
Q 16.703125 13.921875 20.71875 10.15625 
Q 24.75 6.390625 31.78125 6.390625 
Q 38.8125 6.390625 42.859375 10.171875 
Q 46.921875 13.96875 46.921875 20.515625 
Q 46.921875 27.09375 42.890625 30.859375 
Q 38.875 34.625 31.78125 34.625 
z
M 21.921875 38.8125 
Q 15.578125 40.375 12.03125 44.71875 
Q 8.5 49.078125 8.5 55.328125 
Q 8.5 64.0625 14.71875 69.140625 
Q 20.953125 74.21875 31.78125 74.21875 
Q 42.671875 74.21875 48.875 69.140625 
Q 55.078125 64.0625 55.078125 55.328125 
Q 55.078125 49.078125 51.53125 44.71875 
Q 48 40.375 41.703125 38.8125 
Q 48.828125 37.15625 52.796875 32.3125 
Q 56.78125 27.484375 56.78125 20.515625 
Q 56.78125 9.90625 50.3125 4.234375 
Q 43.84375 -1.421875 31.78125 -1.421875 
Q 19.734375 -1.421875 13.25 4.234375 
Q 6.78125 9.90625 6.78125 20.515625 
Q 6.78125 27.484375 10.78125 32.3125 
Q 14.796875 37.15625 21.921875 38.8125 
z
M 18.3125 54.390625 
Q 18.3125 48.734375 21.84375 45.5625 
Q 25.390625 42.390625 31.78125 42.390625 
Q 38.140625 42.390625 41.71875 45.5625 
Q 45.3125 48.734375 45.3125 54.390625 
Q 45.3125 60.0625 41.71875 63.234375 
Q 38.140625 66.40625 31.78125 66.40625 
Q 25.390625 66.40625 21.84375 63.234375 
Q 18.3125 60.0625 18.3125 54.390625 
z
" id="DejaVuSans-38"/>
      </defs>
      <g transform="translate(309.573437 314.365625)rotate(-90)scale(0.1 -0.1)">
       <use xlink:href="#DejaVuSans-41"/>
       <use x="68.408203" xlink:href="#DejaVuSans-38"/>
       <use x="132.03125" xlink:href="#DejaVuSans-35"/>
      </g>
     </g>
    </g>
    <g id="xtick_16">
     <g id="line2d_16">
      <g>
       <use style="stroke:#000000;stroke-width:0.8;" x="325.995781" xlink:href="#m35525d14ab" y="287.8"/>
      </g>
     </g>
     <g id="text_16">
      <!-- A91 -->
      <g transform="translate(328.755156 314.365625)rotate(-90)scale(0.1 -0.1)">
       <use xlink:href="#DejaVuSans-41"/>
       <use x="68.408203" xlink:href="#DejaVuSans-39"/>
       <use x="132.03125" xlink:href="#DejaVuSans-31"/>
      </g>
     </g>
    </g>
    <g id="xtick_17">
     <g id="line2d_17">
      <g>
       <use style="stroke:#000000;stroke-width:0.8;" x="345.1775" xlink:href="#m35525d14ab" y="287.8"/>
      </g>
     </g>
     <g id="text_17">
      <!-- A97 -->
      <g transform="translate(347.936875 314.365625)rotate(-90)scale(0.1 -0.1)">
       <use xlink:href="#DejaVuSans-41"/>
       <use x="68.408203" xlink:href="#DejaVuSans-39"/>
       <use x="132.03125" xlink:href="#DejaVuSans-37"/>
      </g>
     </g>
    </g>
    <g id="xtick_18">
     <g id="line2d_18">
      <g>
       <use style="stroke:#000000;stroke-width:0.8;" x="364.359219" xlink:href="#m35525d14ab" y="287.8"/>
      </g>
     </g>
     <g id="text_18">
      <!-- A103 -->
      <defs>
       <path d="M 31.78125 66.40625 
Q 24.171875 66.40625 20.328125 58.90625 
Q 16.5 51.421875 16.5 36.375 
Q 16.5 21.390625 20.328125 13.890625 
Q 24.171875 6.390625 31.78125 6.390625 
Q 39.453125 6.390625 43.28125 13.890625 
Q 47.125 21.390625 47.125 36.375 
Q 47.125 51.421875 43.28125 58.90625 
Q 39.453125 66.40625 31.78125 66.40625 
z
M 31.78125 74.21875 
Q 44.046875 74.21875 50.515625 64.515625 
Q 56.984375 54.828125 56.984375 36.375 
Q 56.984375 17.96875 50.515625 8.265625 
Q 44.046875 -1.421875 31.78125 -1.421875 
Q 19.53125 -1.421875 13.0625 8.265625 
Q 6.59375 17.96875 6.59375 36.375 
Q 6.59375 54.828125 13.0625 64.515625 
Q 19.53125 74.21875 31.78125 74.21875 
z
" id="DejaVuSans-30"/>
      </defs>
      <g transform="translate(367.118594 320.728125)rotate(-90)scale(0.1 -0.1)">
       <use xlink:href="#DejaVuSans-41"/>
       <use x="68.408203" xlink:href="#DejaVuSans-31"/>
       <use x="132.03125" xlink:href="#DejaVuSans-30"/>
       <use x="195.654297" xlink:href="#DejaVuSans-33"/>
      </g>
     </g>
    </g>
    <g id="xtick_19">
     <g id="line2d_19">
      <g>
       <use style="stroke:#000000;stroke-width:0.8;" x="383.540938" xlink:href="#m35525d14ab" y="287.8"/>
      </g>
     </g>
     <g id="text_19">
      <!-- A109 -->
      <g transform="translate(386.300313 320.728125)rotate(-90)scale(0.1 -0.1)">
       <use xlink:href="#DejaVuSans-41"/>
       <use x="68.408203" xlink:href="#DejaVuSans-31"/>
       <use x="132.03125" xlink:href="#DejaVuSans-30"/>
       <use x="195.654297" xlink:href="#DejaVuSans-39"/>
      </g>
     </g>
    </g>
    <g id="xtick_20">
     <g id="line2d_20">
      <g>
       <use style="stroke:#000000;stroke-width:0.8;" x="402.722656" xlink:href="#m35525d14ab" y="287.8"/>
      </g>
     </g>
     <g id="text_20">
      <!-- A115 -->
      <g transform="translate(405.482031 320.728125)rotate(-90)scale(0.1 -0.1)">
       <use xlink:href="#DejaVuSans-41"/>
       <use x="68.408203" xlink:href="#DejaVuSans-31"/>
       <use x="132.03125" xlink:href="#DejaVuSans-31"/>
       <use x="195.654297" xlink:href="#DejaVuSans-35"/>
      </g>
     </g>
    </g>
    <g id="xtick_21">
     <g id="line2d_21">
      <g>
       <use style="stroke:#000000;stroke-width:0.8;" x="421.904375" xlink:href="#m35525d14ab" y="287.8"/>
      </g>
     </g>
     <g id="text_21">
      <!-- A121 -->
      <g transform="translate(424.66375 320.728125)rotate(-90)scale(0.1 -0.1)">
       <use xlink:href="#DejaVuSans-41"/>
       <use x="68.408203" xlink:href="#DejaVuSans-31"/>
       <use x="132.03125" xlink:href="#DejaVuSans-32"/>
       <use x="195.654297" xlink:href="#DejaVuSans-31"/>
      </g>
     </g>
    </g>
    <g id="xtick_22">
     <g id="line2d_22">
      <g>
       <use style="stroke:#000000;stroke-width:0.8;" x="441.086094" xlink:href="#m35525d14ab" y="287.8"/>
      </g>
     </g>
     <g id="text_22">
      <!-- A127 -->
      <g transform="translate(443.845469 320.728125)rotate(-90)scale(0.1 -0.1)">
       <use xlink:href="#DejaVuSans-41"/>
       <use x="68.408203" xlink:href="#DejaVuSans-31"/>
       <use x="132.03125" xlink:href="#DejaVuSans-32"/>
       <use x="195.654297" xlink:href="#DejaVuSans-37"/>
      </g>
     </g>
    </g>
    <g id="text_23">
     <!-- Residue index -->
     <defs>
      <path d="M 44.390625 34.1875 
Q 47.5625 33.109375 50.5625 29.59375 
Q 53.5625 26.078125 56.59375 19.921875 
L 66.609375 0 
L 56 0 
L 46.6875 18.703125 
Q 43.0625 26.03125 39.671875 28.421875 
Q 36.28125 30.8125 30.421875 30.8125 
L 19.671875 30.8125 
L 19.671875 0 
L 9.8125 0 
L 9.8125 72.90625 
L 32.078125 72.90625 
Q 44.578125 72.90625 50.734375 67.671875 
Q 56.890625 62.453125 56.890625 51.90625 
Q 56.890625 45.015625 53.6875 40.46875 
Q 50.484375 35.9375 44.390625 34.1875 
z
M 19.671875 64.796875 
L 19.671875 38.921875 
L 32.078125 38.921875 
Q 39.203125 38.921875 42.84375 42.21875 
Q 46.484375 45.515625 46.484375 51.90625 
Q 46.484375 58.296875 42.84375 61.546875 
Q 39.203125 64.796875 32.078125 64.796875 
z
" id="DejaVuSans-52"/>
      <path d="M 56.203125 29.59375 
L 56.203125 25.203125 
L 14.890625 25.203125 
Q 15.484375 15.921875 20.484375 11.0625 
Q 25.484375 6.203125 34.421875 6.203125 
Q 39.59375 6.203125 44.453125 7.46875 
Q 49.3125 8.734375 54.109375 11.28125 
L 54.109375 2.78125 
Q 49.265625 0.734375 44.1875 -0.34375 
Q 39.109375 -1.421875 33.890625 -1.421875 
Q 20.796875 -1.421875 13.15625 6.1875 
Q 5.515625 13.8125 5.515625 26.8125 
Q 5.515625 40.234375 12.765625 48.109375 
Q 20.015625 56 32.328125 56 
Q 43.359375 56 49.78125 48.890625 
Q 56.203125 41.796875 56.203125 29.59375 
z
M 47.21875 32.234375 
Q 47.125 39.59375 43.09375 43.984375 
Q 39.0625 48.390625 32.421875 48.390625 
Q 24.90625 48.390625 20.390625 44.140625 
Q 15.875 39.890625 15.1875 32.171875 
z
" id="DejaVuSans-65"/>
      <path d="M 44.28125 53.078125 
L 44.28125 44.578125 
Q 40.484375 46.53125 36.375 47.5 
Q 32.28125 48.484375 27.875 48.484375 
Q 21.1875 48.484375 17.84375 46.4375 
Q 14.5 44.390625 14.5 40.28125 
Q 14.5 37.15625 16.890625 35.375 
Q 19.28125 33.59375 26.515625 31.984375 
L 29.59375 31.296875 
Q 39.15625 29.25 43.1875 25.515625 
Q 47.21875 21.78125 47.21875 15.09375 
Q 47.21875 7.46875 41.1875 3.015625 
Q 35.15625 -1.421875 24.609375 -1.421875 
Q 20.21875 -1.421875 15.453125 -0.5625 
Q 10.6875 0.296875 5.421875 2 
L 5.421875 11.28125 
Q 10.40625 8.6875 15.234375 7.390625 
Q 20.0625 6.109375 24.8125 6.109375 
Q 31.15625 6.109375 34.5625 8.28125 
Q 37.984375 10.453125 37.984375 14.40625 
Q 37.984375 18.0625 35.515625 20.015625 
Q 33.0625 21.96875 24.703125 23.78125 
L 21.578125 24.515625 
Q 13.234375 26.265625 9.515625 29.90625 
Q 5.8125 33.546875 5.8125 39.890625 
Q 5.8125 47.609375 11.28125 51.796875 
Q 16.75 56 26.8125 56 
Q 31.78125 56 36.171875 55.265625 
Q 40.578125 54.546875 44.28125 53.078125 
z
" id="DejaVuSans-73"/>
      <path d="M 9.421875 54.6875 
L 18.40625 54.6875 
L 18.40625 0 
L 9.421875 0 
z
M 9.421875 75.984375 
L 18.40625 75.984375 
L 18.40625 64.59375 
L 9.421875 64.59375 
z
" id="DejaVuSans-69"/>
      <path d="M 45.40625 46.390625 
L 45.40625 75.984375 
L 54.390625 75.984375 
L 54.390625 0 
L 45.40625 0 
L 45.40625 8.203125 
Q 42.578125 3.328125 38.25 0.953125 
Q 33.9375 -1.421875 27.875 -1.421875 
Q 17.96875 -1.421875 11.734375 6.484375 
Q 5.515625 14.40625 5.515625 27.296875 
Q 5.515625 40.1875 11.734375 48.09375 
Q 17.96875 56 27.875 56 
Q 33.9375 56 38.25 53.625 
Q 42.578125 51.265625 45.40625 46.390625 
z
M 14.796875 27.296875 
Q 14.796875 17.390625 18.875 11.75 
Q 22.953125 6.109375 30.078125 6.109375 
Q 37.203125 6.109375 41.296875 11.75 
Q 45.40625 17.390625 45.40625 27.296875 
Q 45.40625 37.203125 41.296875 42.84375 
Q 37.203125 48.484375 30.078125 48.484375 
Q 22.953125 48.484375 18.875 42.84375 
Q 14.796875 37.203125 14.796875 27.296875 
z
" id="DejaVuSans-64"/>
      <path d="M 8.5 21.578125 
L 8.5 54.6875 
L 17.484375 54.6875 
L 17.484375 21.921875 
Q 17.484375 14.15625 20.5 10.265625 
Q 23.53125 6.390625 29.59375 6.390625 
Q 36.859375 6.390625 41.078125 11.03125 
Q 45.3125 15.671875 45.3125 23.6875 
L 45.3125 54.6875 
L 54.296875 54.6875 
L 54.296875 0 
L 45.3125 0 
L 45.3125 8.40625 
Q 42.046875 3.421875 37.71875 1 
Q 33.40625 -1.421875 27.6875 -1.421875 
Q 18.265625 -1.421875 13.375 4.4375 
Q 8.5 10.296875 8.5 21.578125 
z
M 31.109375 56 
z
" id="DejaVuSans-75"/>
      <path id="DejaVuSans-20"/>
      <path d="M 54.890625 33.015625 
L 54.890625 0 
L 45.90625 0 
L 45.90625 32.71875 
Q 45.90625 40.484375 42.875 44.328125 
Q 39.84375 48.1875 33.796875 48.1875 
Q 26.515625 48.1875 22.3125 43.546875 
Q 18.109375 38.921875 18.109375 30.90625 
L 18.109375 0 
L 9.078125 0 
L 9.078125 54.6875 
L 18.109375 54.6875 
L 18.109375 46.1875 
Q 21.34375 51.125 25.703125 53.5625 
Q 30.078125 56 35.796875 56 
Q 45.21875 56 50.046875 50.171875 
Q 54.890625 44.34375 54.890625 33.015625 
z
" id="DejaVuSans-6e"/>
      <path d="M 54.890625 54.6875 
L 35.109375 28.078125 
L 55.90625 0 
L 45.3125 0 
L 29.390625 21.484375 
L 13.484375 0 
L 2.875 0 
L 24.125 28.609375 
L 4.6875 54.6875 
L 15.28125 54.6875 
L 29.78125 35.203125 
L 44.28125 54.6875 
z
" id="DejaVuSans-78"/>
     </defs>
     <g transform="translate(207.557813 332.326562)scale(0.1 -0.1)">
      <use xlink:href="#DejaVuSans-52"/>
      <use x="69.419922" xlink:href="#DejaVuSans-65"/>
      <use x="130.943359" xlink:href="#DejaVuSans-73"/>
      <use x="183.042969" xlink:href="#DejaVuSans-69"/>
      <use x="210.826172" xlink:href="#DejaVuSans-64"/>
      <use x="274.302734" xlink:href="#DejaVuSans-75"/>
      <use x="337.681641" xlink:href="#DejaVuSans-65"/>
      <use x="399.205078" xlink:href="#DejaVuSans-20"/>
      <use x="430.992188" xlink:href="#DejaVuSans-69"/>
      <use x="458.775391" xlink:href="#DejaVuSans-6e"/>
      <use x="522.154297" xlink:href="#DejaVuSans-64"/>
      <use x="585.630859" xlink:href="#DejaVuSans-65"/>
      <use x="647.138672" xlink:href="#DejaVuSans-78"/>
     </g>
    </g>
   </g>
   <g id="matplotlib.axis_2">
    <g id="ytick_1">
     <g id="line2d_23">
      <defs>
       <path d="M 0 0 
L -3.5 0 
" id="mdc42682a88" style="stroke:#000000;stroke-width:0.8;"/>
      </defs>
      <g>
       <use style="stroke:#000000;stroke-width:0.8;" x="38.27" xlink:href="#mdc42682a88" y="286.321038"/>
      </g>
     </g>
     <g id="text_24">
      <!-- 0 -->
      <g transform="translate(24.9075 290.120257)scale(0.1 -0.1)">
       <use xlink:href="#DejaVuSans-30"/>
      </g>
     </g>
    </g>
    <g id="ytick_2">
     <g id="line2d_24">
      <g>
       <use style="stroke:#000000;stroke-width:0.8;" x="38.27" xlink:href="#mdc42682a88" y="232.00874"/>
      </g>
     </g>
     <g id="text_25">
      <!-- 1 -->
      <g transform="translate(24.9075 235.807959)scale(0.1 -0.1)">
       <use xlink:href="#DejaVuSans-31"/>
      </g>
     </g>
    </g>
    <g id="ytick_3">
     <g id="line2d_25">
      <g>
       <use style="stroke:#000000;stroke-width:0.8;" x="38.27" xlink:href="#mdc42682a88" y="177.696443"/>
      </g>
     </g>
     <g id="text_26">
      <!-- 2 -->
      <g transform="translate(24.9075 181.495662)scale(0.1 -0.1)">
       <use xlink:href="#DejaVuSans-32"/>
      </g>
     </g>
    </g>
    <g id="ytick_4">
     <g id="line2d_26">
      <g>
       <use style="stroke:#000000;stroke-width:0.8;" x="38.27" xlink:href="#mdc42682a88" y="123.384145"/>
      </g>
     </g>
     <g id="text_27">
      <!-- 3 -->
      <g transform="translate(24.9075 127.183364)scale(0.1 -0.1)">
       <use xlink:href="#DejaVuSans-33"/>
      </g>
     </g>
    </g>
    <g id="ytick_5">
     <g id="line2d_27">
      <g>
       <use style="stroke:#000000;stroke-width:0.8;" x="38.27" xlink:href="#mdc42682a88" y="69.071848"/>
      </g>
     </g>
     <g id="text_28">
      <!-- 4 -->
      <g transform="translate(24.9075 72.871067)scale(0.1 -0.1)">
       <use xlink:href="#DejaVuSans-34"/>
      </g>
     </g>
    </g>
    <g id="ytick_6">
     <g id="line2d_28">
      <g>
       <use style="stroke:#000000;stroke-width:0.8;" x="38.27" xlink:href="#mdc42682a88" y="14.75955"/>
      </g>
     </g>
     <g id="text_29">
      <!-- 5 -->
      <g transform="translate(24.9075 18.558769)scale(0.1 -0.1)">
       <use xlink:href="#DejaVuSans-35"/>
      </g>
     </g>
    </g>
    <g id="text_30">
     <!-- RMSF -->
     <defs>
      <path d="M 9.8125 72.90625 
L 24.515625 72.90625 
L 43.109375 23.296875 
L 61.8125 72.90625 
L 76.515625 72.90625 
L 76.515625 0 
L 66.890625 0 
L 66.890625 64.015625 
L 48.09375 14.015625 
L 38.1875 14.015625 
L 19.390625 64.015625 
L 19.390625 0 
L 9.8125 0 
z
" id="DejaVuSans-4d"/>
      <path d="M 53.515625 70.515625 
L 53.515625 60.890625 
Q 47.90625 63.578125 42.921875 64.890625 
Q 37.9375 66.21875 33.296875 66.21875 
Q 25.25 66.21875 20.875 63.09375 
Q 16.5 59.96875 16.5 54.203125 
Q 16.5 49.359375 19.40625 46.890625 
Q 22.3125 44.4375 30.421875 42.921875 
L 36.375 41.703125 
Q 47.40625 39.59375 52.65625 34.296875 
Q 57.90625 29 57.90625 20.125 
Q 57.90625 9.515625 50.796875 4.046875 
Q 43.703125 -1.421875 29.984375 -1.421875 
Q 24.8125 -1.421875 18.96875 -0.25 
Q 13.140625 0.921875 6.890625 3.21875 
L 6.890625 13.375 
Q 12.890625 10.015625 18.65625 8.296875 
Q 24.421875 6.59375 29.984375 6.59375 
Q 38.421875 6.59375 43.015625 9.90625 
Q 47.609375 13.234375 47.609375 19.390625 
Q 47.609375 24.75 44.3125 27.78125 
Q 41.015625 30.8125 33.5 32.328125 
L 27.484375 33.5 
Q 16.453125 35.6875 11.515625 40.375 
Q 6.59375 45.0625 6.59375 53.421875 
Q 6.59375 63.09375 13.40625 68.65625 
Q 20.21875 74.21875 32.171875 74.21875 
Q 37.3125 74.21875 42.625 73.28125 
Q 47.953125 72.359375 53.515625 70.515625 
z
" id="DejaVuSans-53"/>
      <path d="M 9.8125 72.90625 
L 51.703125 72.90625 
L 51.703125 64.59375 
L 19.671875 64.59375 
L 19.671875 43.109375 
L 48.578125 43.109375 
L 48.578125 34.8125 
L 19.671875 34.8125 
L 19.671875 0 
L 9.8125 0 
z
" id="DejaVuSans-46"/>
     </defs>
     <g transform="translate(18.827813 165.12694)rotate(-90)scale(0.1 -0.1)">
      <use xlink:href="#DejaVuSans-52"/>
      <use x="69.482422" xlink:href="#DejaVuSans-4d"/>
      <use x="155.761719" xlink:href="#DejaVuSans-53"/>
      <use x="219.238281" xlink:href="#DejaVuSans-46"/>
     </g>
    </g>
   </g>
   <g id="line2d_29">
    <path clip-path="url(#p3c73390318)" d="M 38.27 27.18744 
L 41.466953 114.611228 
L 44.663906 181.121521 
L 47.860859 161.096824 
L 51.057813 205.135448 
L 54.254766 256.355835 
L 57.451719 260.737755 
L 60.648672 265.765813 
L 63.845625 265.517865 
L 67.042578 268.71558 
L 70.239531 265.061835 
L 73.436484 259.715892 
L 76.633438 266.614345 
L 79.830391 266.480713 
L 83.027344 255.686912 
L 86.224297 250.15259 
L 89.42125 257.585609 
L 92.618203 231.633786 
L 95.815156 225.350431 
L 99.012109 253.131024 
L 102.209063 230.796929 
L 105.406016 231.095462 
L 108.602969 245.382818 
L 111.799922 250.187691 
L 114.996875 246.47149 
L 118.193828 246.746624 
L 121.390781 252.844358 
L 124.587734 255.713507 
L 127.784688 238.61147 
L 130.981641 243.875532 
L 134.178594 245.90572 
L 137.375547 238.48724 
L 140.5725 224.556508 
L 143.769453 190.257138 
L 146.966406 208.205525 
L 150.163359 222.718039 
L 153.360313 199.020479 
L 156.557266 186.706806 
L 159.754219 144.933116 
L 162.951172 214.48505 
L 166.148125 238.635014 
L 169.345078 242.081456 
L 172.542031 244.575833 
L 175.738984 258.422485 
L 178.935938 261.205472 
L 182.132891 255.647271 
L 185.329844 261.14258 
L 188.526797 260.182252 
L 191.72375 264.23615 
L 194.920703 264.669987 
L 198.117656 256.068632 
L 201.314609 266.22129 
L 204.511563 262.268695 
L 207.708516 255.906992 
L 210.905469 254.268559 
L 214.102422 265.58476 
L 217.299375 242.782356 
L 220.496328 245.146782 
L 223.693281 259.191211 
L 226.890234 245.670157 
L 230.087188 234.388653 
L 233.284141 237.866651 
L 236.481094 216.535 
L 239.678047 214.112119 
L 242.875 239.582328 
L 246.071953 242.868216 
L 249.268906 224.967073 
L 252.465859 189.245361 
L 255.662813 209.77059 
L 258.859766 219.192298 
L 262.056719 224.128666 
L 265.253672 251.273045 
L 268.450625 262.360401 
L 271.647578 256.102232 
L 274.844531 258.042082 
L 278.041484 264.437656 
L 281.238438 258.679563 
L 284.435391 253.732904 
L 287.632344 254.79748 
L 290.829297 259.42122 
L 294.02625 268.724995 
L 297.223203 266.315297 
L 300.420156 275.389878 
L 303.617109 272.918633 
L 306.814062 267.16749 
L 310.011016 274.005041 
L 313.207969 263.688928 
L 316.404922 256.113841 
L 319.601875 262.121815 
L 322.798828 255.16264 
L 325.995781 254.962632 
L 329.192734 248.719085 
L 332.389688 254.647413 
L 335.586641 252.746363 
L 338.783594 248.634753 
L 341.980547 229.091979 
L 345.1775 214.862171 
L 348.374453 182.335832 
L 351.571406 223.976111 
L 354.768359 180.448003 
L 357.965312 218.606656 
L 361.162266 177.657936 
L 364.359219 211.360522 
L 367.556172 208.909459 
L 370.753125 217.995535 
L 373.950078 231.417978 
L 377.147031 237.666004 
L 380.343984 263.44283 
L 383.540938 268.587008 
L 386.737891 266.405383 
L 389.934844 264.937767 
L 393.131797 269.438907 
L 396.32875 269.445665 
L 399.525703 265.811967 
L 402.722656 268.838095 
L 405.919609 274.590836 
L 409.116562 271.451675 
L 412.313516 267.282719 
L 415.510469 271.305867 
L 418.707422 269.89201 
L 421.904375 265.96044 
L 425.101328 264.823557 
L 428.298281 262.919448 
L 431.495234 260.525184 
L 434.692188 260.375928 
L 437.889141 248.615219 
L 441.086094 238.781126 
L 444.283047 211.614081 
L 447.48 136.854895 
L 447.48 136.854895 
" style="fill:none;stroke:#666666;stroke-dasharray:1,1.65;stroke-dashoffset:0;"/>
    <defs>
     <path d="M 0 0.5 
C 0.132602 0.5 0.25979 0.447317 0.353553 0.353553 
C 0.447317 0.25979 0.5 0.132602 0.5 0 
C 0.5 -0.132602 0.447317 -0.25979 0.353553 -0.353553 
C 0.25979 -0.447317 0.132602 -0.5 0 -0.5 
C -0.132602 -0.5 -0.25979 -0.447317 -0.353553 -0.353553 
C -0.447317 -0.25979 -0.5 -0.132602 -0.5 0 
C -0.5 0.132602 -0.447317 0.25979 -0.353553 0.353553 
C -0.25979 0.447317 -0.132602 0.5 0 0.5 
z
" id="m87a9069743" style="stroke:#666666;"/>
    </defs>
    <g clip-path="url(#p3c73390318)">
     <use style="fill:#666666;stroke:#666666;" x="38.27" xlink:href="#m87a9069743" y="27.18744"/>
     <use style="fill:#666666;stroke:#666666;" x="41.466953" xlink:href="#m87a9069743" y="114.611228"/>
     <use style="fill:#666666;stroke:#666666;" x="44.663906" xlink:href="#m87a9069743" y="181.121521"/>
     <use style="fill:#666666;stroke:#666666;" x="47.860859" xlink:href="#m87a9069743" y="161.096824"/>
     <use style="fill:#666666;stroke:#666666;" x="51.057813" xlink:href="#m87a9069743" y="205.135448"/>
     <use style="fill:#666666;stroke:#666666;" x="54.254766" xlink:href="#m87a9069743" y="256.355835"/>
     <use style="fill:#666666;stroke:#666666;" x="57.451719" xlink:href="#m87a9069743" y="260.737755"/>
     <use style="fill:#666666;stroke:#666666;" x="60.648672" xlink:href="#m87a9069743" y="265.765813"/>
     <use style="fill:#666666;stroke:#666666;" x="63.845625" xlink:href="#m87a9069743" y="265.517865"/>
     <use style="fill:#666666;stroke:#666666;" x="67.042578" xlink:href="#m87a9069743" y="268.71558"/>
     <use style="fill:#666666;stroke:#666666;" x="70.239531" xlink:href="#m87a9069743" y="265.061835"/>
     <use style="fill:#666666;stroke:#666666;" x="73.436484" xlink:href="#m87a9069743" y="259.715892"/>
     <use style="fill:#666666;stroke:#666666;" x="76.633438" xlink:href="#m87a9069743" y="266.614345"/>
     <use style="fill:#666666;stroke:#666666;" x="79.830391" xlink:href="#m87a9069743" y="266.480713"/>
     <use style="fill:#666666;stroke:#666666;" x="83.027344" xlink:href="#m87a9069743" y="255.686912"/>
     <use style="fill:#666666;stroke:#666666;" x="86.224297" xlink:href="#m87a9069743" y="250.15259"/>
     <use style="fill:#666666;stroke:#666666;" x="89.42125" xlink:href="#m87a9069743" y="257.585609"/>
     <use style="fill:#666666;stroke:#666666;" x="92.618203" xlink:href="#m87a9069743" y="231.633786"/>
     <use style="fill:#666666;stroke:#666666;" x="95.815156" xlink:href="#m87a9069743" y="225.350431"/>
     <use style="fill:#666666;stroke:#666666;" x="99.012109" xlink:href="#m87a9069743" y="253.131024"/>
     <use style="fill:#666666;stroke:#666666;" x="102.209063" xlink:href="#m87a9069743" y="230.796929"/>
     <use style="fill:#666666;stroke:#666666;" x="105.406016" xlink:href="#m87a9069743" y="231.095462"/>
     <use style="fill:#666666;stroke:#666666;" x="108.602969" xlink:href="#m87a9069743" y="245.382818"/>
     <use style="fill:#666666;stroke:#666666;" x="111.799922" xlink:href="#m87a9069743" y="250.187691"/>
     <use style="fill:#666666;stroke:#666666;" x="114.996875" xlink:href="#m87a9069743" y="246.47149"/>
     <use style="fill:#666666;stroke:#666666;" x="118.193828" xlink:href="#m87a9069743" y="246.746624"/>
     <use style="fill:#666666;stroke:#666666;" x="121.390781" xlink:href="#m87a9069743" y="252.844358"/>
     <use style="fill:#666666;stroke:#666666;" x="124.587734" xlink:href="#m87a9069743" y="255.713507"/>
     <use style="fill:#666666;stroke:#666666;" x="127.784688" xlink:href="#m87a9069743" y="238.61147"/>
     <use style="fill:#666666;stroke:#666666;" x="130.981641" xlink:href="#m87a9069743" y="243.875532"/>
     <use style="fill:#666666;stroke:#666666;" x="134.178594" xlink:href="#m87a9069743" y="245.90572"/>
     <use style="fill:#666666;stroke:#666666;" x="137.375547" xlink:href="#m87a9069743" y="238.48724"/>
     <use style="fill:#666666;stroke:#666666;" x="140.5725" xlink:href="#m87a9069743" y="224.556508"/>
     <use style="fill:#666666;stroke:#666666;" x="143.769453" xlink:href="#m87a9069743" y="190.257138"/>
     <use style="fill:#666666;stroke:#666666;" x="146.966406" xlink:href="#m87a9069743" y="208.205525"/>
     <use style="fill:#666666;stroke:#666666;" x="150.163359" xlink:href="#m87a9069743" y="222.718039"/>
     <use style="fill:#666666;stroke:#666666;" x="153.360313" xlink:href="#m87a9069743" y="199.020479"/>
     <use style="fill:#666666;stroke:#666666;" x="156.557266" xlink:href="#m87a9069743" y="186.706806"/>
     <use style="fill:#666666;stroke:#666666;" x="159.754219" xlink:href="#m87a9069743" y="144.933116"/>
     <use style="fill:#666666;stroke:#666666;" x="162.951172" xlink:href="#m87a9069743" y="214.48505"/>
     <use style="fill:#666666;stroke:#666666;" x="166.148125" xlink:href="#m87a9069743" y="238.635014"/>
     <use style="fill:#666666;stroke:#666666;" x="169.345078" xlink:href="#m87a9069743" y="242.081456"/>
     <use style="fill:#666666;stroke:#666666;" x="172.542031" xlink:href="#m87a9069743" y="244.575833"/>
     <use style="fill:#666666;stroke:#666666;" x="175.738984" xlink:href="#m87a9069743" y="258.422485"/>
     <use style="fill:#666666;stroke:#666666;" x="178.935938" xlink:href="#m87a9069743" y="261.205472"/>
     <use style="fill:#666666;stroke:#666666;" x="182.132891" xlink:href="#m87a9069743" y="255.647271"/>
     <use style="fill:#666666;stroke:#666666;" x="185.329844" xlink:href="#m87a9069743" y="261.14258"/>
     <use style="fill:#666666;stroke:#666666;" x="188.526797" xlink:href="#m87a9069743" y="260.182252"/>
     <use style="fill:#666666;stroke:#666666;" x="191.72375" xlink:href="#m87a9069743" y="264.23615"/>
     <use style="fill:#666666;stroke:#666666;" x="194.920703" xlink:href="#m87a9069743" y="264.669987"/>
     <use style="fill:#666666;stroke:#666666;" x="198.117656" xlink:href="#m87a9069743" y="256.068632"/>
     <use style="fill:#666666;stroke:#666666;" x="201.314609" xlink:href="#m87a9069743" y="266.22129"/>
     <use style="fill:#666666;stroke:#666666;" x="204.511563" xlink:href="#m87a9069743" y="262.268695"/>
     <use style="fill:#666666;stroke:#666666;" x="207.708516" xlink:href="#m87a9069743" y="255.906992"/>
     <use style="fill:#666666;stroke:#666666;" x="210.905469" xlink:href="#m87a9069743" y="254.268559"/>
     <use style="fill:#666666;stroke:#666666;" x="214.102422" xlink:href="#m87a9069743" y="265.58476"/>
     <use style="fill:#666666;stroke:#666666;" x="217.299375" xlink:href="#m87a9069743" y="242.782356"/>
     <use style="fill:#666666;stroke:#666666;" x="220.496328" xlink:href="#m87a9069743" y="245.146782"/>
     <use style="fill:#666666;stroke:#666666;" x="223.693281" xlink:href="#m87a9069743" y="259.191211"/>
     <use style="fill:#666666;stroke:#666666;" x="226.890234" xlink:href="#m87a9069743" y="245.670157"/>
     <use style="fill:#666666;stroke:#666666;" x="230.087188" xlink:href="#m87a9069743" y="234.388653"/>
     <use style="fill:#666666;stroke:#666666;" x="233.284141" xlink:href="#m87a9069743" y="237.866651"/>
     <use style="fill:#666666;stroke:#666666;" x="236.481094" xlink:href="#m87a9069743" y="216.535"/>
     <use style="fill:#666666;stroke:#666666;" x="239.678047" xlink:href="#m87a9069743" y="214.112119"/>
     <use style="fill:#666666;stroke:#666666;" x="242.875" xlink:href="#m87a9069743" y="239.582328"/>
     <use style="fill:#666666;stroke:#666666;" x="246.071953" xlink:href="#m87a9069743" y="242.868216"/>
     <use style="fill:#666666;stroke:#666666;" x="249.268906" xlink:href="#m87a9069743" y="224.967073"/>
     <use style="fill:#666666;stroke:#666666;" x="252.465859" xlink:href="#m87a9069743" y="189.245361"/>
     <use style="fill:#666666;stroke:#666666;" x="255.662813" xlink:href="#m87a9069743" y="209.77059"/>
     <use style="fill:#666666;stroke:#666666;" x="258.859766" xlink:href="#m87a9069743" y="219.192298"/>
     <use style="fill:#666666;stroke:#666666;" x="262.056719" xlink:href="#m87a9069743" y="224.128666"/>
     <use style="fill:#666666;stroke:#666666;" x="265.253672" xlink:href="#m87a9069743" y="251.273045"/>
     <use style="fill:#666666;stroke:#666666;" x="268.450625" xlink:href="#m87a9069743" y="262.360401"/>
     <use style="fill:#666666;stroke:#666666;" x="271.647578" xlink:href="#m87a9069743" y="256.102232"/>
     <use style="fill:#666666;stroke:#666666;" x="274.844531" xlink:href="#m87a9069743" y="258.042082"/>
     <use style="fill:#666666;stroke:#666666;" x="278.041484" xlink:href="#m87a9069743" y="264.437656"/>
     <use style="fill:#666666;stroke:#666666;" x="281.238438" xlink:href="#m87a9069743" y="258.679563"/>
     <use style="fill:#666666;stroke:#666666;" x="284.435391" xlink:href="#m87a9069743" y="253.732904"/>
     <use style="fill:#666666;stroke:#666666;" x="287.632344" xlink:href="#m87a9069743" y="254.79748"/>
     <use style="fill:#666666;stroke:#666666;" x="290.829297" xlink:href="#m87a9069743" y="259.42122"/>
     <use style="fill:#666666;stroke:#666666;" x="294.02625" xlink:href="#m87a9069743" y="268.724995"/>
     <use style="fill:#666666;stroke:#666666;" x="297.223203" xlink:href="#m87a9069743" y="266.315297"/>
     <use style="fill:#666666;stroke:#666666;" x="300.420156" xlink:href="#m87a9069743" y="275.389878"/>
     <use style="fill:#666666;stroke:#666666;" x="303.617109" xlink:href="#m87a9069743" y="272.918633"/>
     <use style="fill:#666666;stroke:#666666;" x="306.814062" xlink:href="#m87a9069743" y="267.16749"/>
     <use style="fill:#666666;stroke:#666666;" x="310.011016" xlink:href="#m87a9069743" y="274.005041"/>
     <use style="fill:#666666;stroke:#666666;" x="313.207969" xlink:href="#m87a9069743" y="263.688928"/>
     <use style="fill:#666666;stroke:#666666;" x="316.404922" xlink:href="#m87a9069743" y="256.113841"/>
     <use style="fill:#666666;stroke:#666666;" x="319.601875" xlink:href="#m87a9069743" y="262.121815"/>
     <use style="fill:#666666;stroke:#666666;" x="322.798828" xlink:href="#m87a9069743" y="255.16264"/>
     <use style="fill:#666666;stroke:#666666;" x="325.995781" xlink:href="#m87a9069743" y="254.962632"/>
     <use style="fill:#666666;stroke:#666666;" x="329.192734" xlink:href="#m87a9069743" y="248.719085"/>
     <use style="fill:#666666;stroke:#666666;" x="332.389688" xlink:href="#m87a9069743" y="254.647413"/>
     <use style="fill:#666666;stroke:#666666;" x="335.586641" xlink:href="#m87a9069743" y="252.746363"/>
     <use style="fill:#666666;stroke:#666666;" x="338.783594" xlink:href="#m87a9069743" y="248.634753"/>
     <use style="fill:#666666;stroke:#666666;" x="341.980547" xlink:href="#m87a9069743" y="229.091979"/>
     <use style="fill:#666666;stroke:#666666;" x="345.1775" xlink:href="#m87a9069743" y="214.862171"/>
     <use style="fill:#666666;stroke:#666666;" x="348.374453" xlink:href="#m87a9069743" y="182.335832"/>
     <use style="fill:#666666;stroke:#666666;" x="351.571406" xlink:href="#m87a9069743" y="223.976111"/>
     <use style="fill:#666666;stroke:#666666;" x="354.768359" xlink:href="#m87a9069743" y="180.448003"/>
     <use style="fill:#666666;stroke:#666666;" x="357.965312" xlink:href="#m87a9069743" y="218.606656"/>
     <use style="fill:#666666;stroke:#666666;" x="361.162266" xlink:href="#m87a9069743" y="177.657936"/>
     <use style="fill:#666666;stroke:#666666;" x="364.359219" xlink:href="#m87a9069743" y="211.360522"/>
     <use style="fill:#666666;stroke:#666666;" x="367.556172" xlink:href="#m87a9069743" y="208.909459"/>
     <use style="fill:#666666;stroke:#666666;" x="370.753125" xlink:href="#m87a9069743" y="217.995535"/>
     <use style="fill:#666666;stroke:#666666;" x="373.950078" xlink:href="#m87a9069743" y="231.417978"/>
     <use style="fill:#666666;stroke:#666666;" x="377.147031" xlink:href="#m87a9069743" y="237.666004"/>
     <use style="fill:#666666;stroke:#666666;" x="380.343984" xlink:href="#m87a9069743" y="263.44283"/>
     <use style="fill:#666666;stroke:#666666;" x="383.540938" xlink:href="#m87a9069743" y="268.587008"/>
     <use style="fill:#666666;stroke:#666666;" x="386.737891" xlink:href="#m87a9069743" y="266.405383"/>
     <use style="fill:#666666;stroke:#666666;" x="389.934844" xlink:href="#m87a9069743" y="264.937767"/>
     <use style="fill:#666666;stroke:#666666;" x="393.131797" xlink:href="#m87a9069743" y="269.438907"/>
     <use style="fill:#666666;stroke:#666666;" x="396.32875" xlink:href="#m87a9069743" y="269.445665"/>
     <use style="fill:#666666;stroke:#666666;" x="399.525703" xlink:href="#m87a9069743" y="265.811967"/>
     <use style="fill:#666666;stroke:#666666;" x="402.722656" xlink:href="#m87a9069743" y="268.838095"/>
     <use style="fill:#666666;stroke:#666666;" x="405.919609" xlink:href="#m87a9069743" y="274.590836"/>
     <use style="fill:#666666;stroke:#666666;" x="409.116562" xlink:href="#m87a9069743" y="271.451675"/>
     <use style="fill:#666666;stroke:#666666;" x="412.313516" xlink:href="#m87a9069743" y="267.282719"/>
     <use style="fill:#666666;stroke:#666666;" x="415.510469" xlink:href="#m87a9069743" y="271.305867"/>
     <use style="fill:#666666;stroke:#666666;" x="418.707422" xlink:href="#m87a9069743" y="269.89201"/>
     <use style="fill:#666666;stroke:#666666;" x="421.904375" xlink:href="#m87a9069743" y="265.96044"/>
     <use style="fill:#666666;stroke:#666666;" x="425.101328" xlink:href="#m87a9069743" y="264.823557"/>
     <use style="fill:#666666;stroke:#666666;" x="428.298281" xlink:href="#m87a9069743" y="262.919448"/>
     <use style="fill:#666666;stroke:#666666;" x="431.495234" xlink:href="#m87a9069743" y="260.525184"/>
     <use style="fill:#666666;stroke:#666666;" x="434.692188" xlink:href="#m87a9069743" y="260.375928"/>
     <use style="fill:#666666;stroke:#666666;" x="437.889141" xlink:href="#m87a9069743" y="248.615219"/>
     <use style="fill:#666666;stroke:#666666;" x="441.086094" xlink:href="#m87a9069743" y="238.781126"/>
     <use style="fill:#666666;stroke:#666666;" x="444.283047" xlink:href="#m87a9069743" y="211.614081"/>
     <use style="fill:#666666;stroke:#666666;" x="447.48" xlink:href="#m87a9069743" y="136.854895"/>
    </g>
   </g>
   <g id="patch_3">
    <path d="M 38.27 287.8 
L 38.27 14.777318 
" style="fill:none;stroke:#000000;stroke-linecap:square;stroke-linejoin:miter;stroke-width:0.8;"/>
   </g>
   <g id="patch_4">
    <path d="M 447.48 287.8 
L 447.48 14.777318 
" style="fill:none;stroke:#000000;stroke-linecap:square;stroke-linejoin:miter;stroke-width:0.8;"/>
   </g>
   <g id="patch_5">
    <path d="M 38.27 287.8 
L 447.48 287.8 
" style="fill:none;stroke:#000000;stroke-linecap:square;stroke-linejoin:miter;stroke-width:0.8;"/>
   </g>
   <g id="patch_6">
    <path d="M 38.27 14.777318 
L 447.48 14.777318 
" style="fill:none;stroke:#000000;stroke-linecap:square;stroke-linejoin:miter;stroke-width:0.8;"/>
   </g>
  </g>
 </g>
 <defs>
  <clipPath id="p3c73390318">
   <rect height="273.022682" width="409.21" x="38.27" y="14.777318"/>
  </clipPath>
 </defs>
</svg>
